<?xml version="1.0" standalone="no"?>
<!DOCTYPE svg PUBLIC "-//W3C//DTD SVG 1.1//EN" "http://www.w3.org/Graphics/SVG/1.1/DTD/svg11.dtd" >
<svg xmlns="http://www.w3.org/2000/svg" xmlns:xlink="http://www.w3.org/1999/xlink" version="1.1">
<metadata>
Created by FontForge 20170910 at Tue Jul  3 19:45:32 2018
 By Jimmy Wärting
Copyright 1990 as an unpublished work by Bitstream Inc.  All rights reserved.  Confidential.
</metadata>
<defs>
<font id="AmerigoBT-BoldA" horiz-adv-x="500" >
  <font-face 
    font-family="Bitstream Amerigo"
    font-weight="700"
    font-stretch="normal"
    units-per-em="1000"
    panose-1="0 0 0 0 0 0 0 0 0 0"
    ascent="750"
    descent="-250"
    x-height="463"
    cap-height="655"
    bbox="-178 -236 1000 946"
    underline-thickness="76"
    underline-position="-103"
    unicode-range="U+000D-FB02"
  />
<missing-glyph horiz-adv-x="256" 
 />
    <glyph glyph-name=".notdef" horiz-adv-x="256" 
 />
    <glyph glyph-name=".null" horiz-adv-x="0" 
 />
    <glyph glyph-name=".null" horiz-adv-x="0" 
 />
    <glyph glyph-name="nonmarkingreturn" unicode="&#xd;" horiz-adv-x="250" 
 />
    <glyph glyph-name="space" unicode=" " horiz-adv-x="256" 
 />
    <glyph glyph-name="exclam" unicode="!" horiz-adv-x="225" 
d="M195 655l-53 -500h-48l-53 500h154zM115 103q68 0 68 -58q0 -23 -17 -38t-47 -15q-32 0 -49.5 14t-17.5 39q0 26 17.5 42t45.5 16z" />
    <glyph glyph-name="quotedbl" unicode="&#x22;" horiz-adv-x="314" 
d="M122 701v-272h-80v272h80zM273 701v-272h-80v272h80z" />
    <glyph glyph-name="numbersign" unicode="#" horiz-adv-x="769" 
d="M452 713l-75 -213h122l76 213h93l-75 -213h142l-29 -84h-143l-44 -123h151l-30 -84h-150l-76 -212h-93l76 212h-123l-77 -212h-93l76 212h-146l30 84h145l44 123h-154l30 84h154l76 213h93zM302 292h125l44 124h-125z" />
    <glyph glyph-name="dollar" unicode="$" horiz-adv-x="512" 
d="M269 729v-64q6 1 12.5 1h13.5q30 0 64.5 -4.5t74.5 -12.5v-138l-103 83q-12 10 -25.5 16.5t-36.5 6.5v-217q47 -27 82 -51t58 -49t34.5 -54t11.5 -65q0 -80 -49 -130t-137 -56v-65h-34v63h-13q-41 0 -83 7.5t-89 21.5v151l113 -107q14 -14 28.5 -19.5t37.5 -5.5h6v227
q-44 26 -77 49.5t-54.5 49t-32 54.5t-10.5 65q0 152 174 179v64h34zM235 616q-74 -28 -74 -94q0 -29 18.5 -54t55.5 -52v200zM269 44q35 8 55.5 34.5t20.5 61.5q0 32 -19 56.5t-57 50.5v-203z" />
    <glyph glyph-name="percent" unicode="%" horiz-adv-x="512" 
d="M152 662q62 0 100.5 -42t38.5 -111q0 -34 -10 -62t-28.5 -48.5t-44.5 -32t-57 -11.5q-30 0 -54.5 11.5t-42.5 31.5t-28 48t-10 61q0 34 10.5 62.5t28.5 49t43 32t54 11.5zM152 627q-24 0 -39.5 -30.5t-15.5 -89.5q0 -57 15 -86.5t40 -29.5q26 0 41.5 31t15.5 91
q0 54 -16 84t-41 30zM527 544l-497 -465l-25 26l495 463zM368 290q62 0 100.5 -41.5t38.5 -110.5q0 -33 -10 -61t-28.5 -48.5t-43.5 -31.5t-55 -11q-31 0 -56.5 11t-43.5 31t-28 47.5t-10 59.5q0 33 10.5 61.5t28.5 49.5t43 32.5t54 11.5zM368 252q-23 0 -38.5 -29.5
t-15.5 -86.5q0 -55 14.5 -84t39.5 -29q26 0 41 30.5t15 88.5q0 53 -16 81.5t-40 28.5z" />
    <glyph glyph-name="ampersand" unicode="&#x26;" horiz-adv-x="641" 
d="M278 394q75 60 75 138q0 42 -20.5 65t-55.5 23q-39 0 -60 -23t-21 -67q0 -32 21 -64t61 -72zM502 139q12 20 19.5 49.5t7.5 64.5q0 34 -16.5 64.5t-45.5 72.5h132q2 -21 3.5 -40.5t1.5 -36.5q0 -63 -16.5 -114t-52.5 -99q28 -31 57 -55.5t58 -44.5h-188l-26 33
q-48 -23 -91.5 -35t-88.5 -12q-53 0 -96.5 14t-74 39t-47 58.5t-16.5 72.5q0 110 150 173q-45 41 -67.5 82t-22.5 89q0 73 48 112t139 39q80 0 124 -36.5t44 -100.5q0 -50 -34 -92t-100 -72zM199 309q-49 -37 -49 -109q0 -71 44.5 -113.5t116.5 -42.5q52 0 97 22z" />
    <glyph glyph-name="quotesingle" unicode="'" horiz-adv-x="163" 
d="M122 701v-272h-80v272h80z" />
    <glyph glyph-name="parenleft" unicode="(" horiz-adv-x="264" 
d="M234 707q-45 -79 -65 -190.5t-20 -260.5t21.5 -264t67.5 -200q-98 51 -150.5 167.5t-52.5 293.5q0 178 52.5 293.5t146.5 160.5z" />
    <glyph glyph-name="parenright" unicode=")" horiz-adv-x="264" 
d="M24 707q97 -51 150 -167.5t53 -293.5q0 -178 -52 -293.5t-146 -160.5q45 79 64.5 190.5t19.5 260.5t-21.5 264t-67.5 200z" />
    <glyph glyph-name="asterisk" unicode="*" horiz-adv-x="359" 
d="M210 708l-30 -154l-30 154h60zM320 637l-136 -82l94 126zM339 519l-155 31l155 29v-60zM316 458l-42 -39l-89 126zM210 390h-60l30 154zM86 418l-43 41l133 85zM175 550l-155 -31v60zM177 555l-132 84l39 42z" />
    <glyph glyph-name="plus" unicode="+" horiz-adv-x="833" 
d="M458 596v-257h251v-81h-251v-258h-83v258h-251v81h251v257h83z" />
    <glyph glyph-name="comma" unicode="," horiz-adv-x="256" 
d="M84 -132q32 49 37 128h-3q-27 0 -42.5 14t-15.5 38q0 61 66 61q34 0 52 -22.5t18 -64.5q0 -28 -8.5 -54t-23.5 -46.5t-35.5 -34.5t-44.5 -19z" />
    <glyph glyph-name="hyphen" unicode="-" horiz-adv-x="252" 
d="M233 294v-83h-213v83h213z" />
    <glyph glyph-name="period" unicode="." horiz-adv-x="256" 
d="M135 112q69 0 69 -63q0 -30 -17 -43.5t-52 -13.5q-63 0 -63 57q0 30 16.5 46.5t46.5 16.5z" />
    <glyph glyph-name="slash" unicode="/" horiz-adv-x="231" 
d="M228 710l-159 -914h-69l160 914h68z" />
    <glyph glyph-name="zero" unicode="0" horiz-adv-x="512" 
d="M23 329q0 161 65 249t179 88q104 0 163 -88t59 -254q0 -165 -64 -253.5t-177 -88.5q-108 0 -166.5 88t-58.5 259zM255 619q-54 0 -78.5 -75t-24.5 -227q0 -146 23.5 -217.5t74.5 -71.5q52 0 79.5 71t27.5 212q0 158 -22.5 233t-79.5 75z" />
    <glyph glyph-name="one" unicode="1" horiz-adv-x="512" 
d="M341 132q0 -26 4.5 -57t31.5 -75h-197q28 48 33.5 82.5t5.5 63.5v11v368h-152q61 25 130 61.5t144 85.5v-540z" />
    <glyph glyph-name="two" unicode="2" horiz-adv-x="512" 
d="M359 104q51 0 123 65l-23 -169h-462q97 106 158 177.5t88 108.5q17 23 31 44t24.5 43.5t16.5 47t6 54.5q0 69 -27 106.5t-72 37.5q-17 0 -31 -6t-30 -20l-109 -97v144q113 24 187 24q109 0 166 -45t57 -128q0 -47 -20.5 -90t-60 -88.5t-96.5 -96t-130 -112.5h204z" />
    <glyph glyph-name="three" unicode="3" horiz-adv-x="512" 
d="M294 344q89 -11 135.5 -53.5t46.5 -108.5q0 -93 -68.5 -144.5t-202.5 -51.5q-84 0 -174 21v149l108 -99q23 -22 56 -22q30 0 55.5 10t44.5 29t30 45.5t11 59.5q0 141 -164 141q76 40 112.5 84t36.5 105q0 49 -31 80t-86 31q-19 0 -32 -6t-28 -20l-104 -94v135
q101 26 195 26q108 0 163.5 -39.5t55.5 -106.5q0 -54 -40.5 -98.5t-119.5 -72.5z" />
    <glyph glyph-name="four" unicode="4" horiz-adv-x="512" 
d="M395 252h97v-88h-97v-40q0 -37 8 -67t28 -57h-182q38 61 38 129v35h-285q75 139 148.5 253.5t141.5 214.5l103 36v-416zM104 252h183v295z" />
    <glyph glyph-name="five" unicode="5" horiz-adv-x="512" 
d="M433 655v-99h-300v-152q32 8 61.5 12.5t57.5 4.5q109 0 169 -55t60 -155q0 -103 -68.5 -164t-195.5 -61q-32 0 -73.5 5.5t-95.5 14.5v151l105 -95q14 -13 27 -19.5t30 -6.5q29 0 54.5 11.5t44.5 32.5t29.5 51.5t10.5 67.5q0 160 -181 160q-49 0 -100 -12v308h365z" />
    <glyph glyph-name="six" unicode="6" horiz-adv-x="512" 
d="M483 607q-28 3 -51.5 5t-41.5 2q-109 0 -165 -61.5t-67 -190.5q58 32 138 32q42 0 77.5 -15t62 -42t41.5 -63t15 -78q0 -47 -17 -86t-48 -67t-74 -43.5t-96 -15.5q-115 0 -175.5 73t-60.5 217q0 92 22 165t61.5 123.5t95.5 77.5t124 27q107 0 159 -60zM153 326
q-3 -39 -3 -65q0 -121 25 -179.5t85 -58.5q48 0 73.5 40t25.5 119q0 157 -130 157q-33 0 -76 -13z" />
    <glyph glyph-name="seven" unicode="7" horiz-adv-x="512" 
d="M497 655l-155 -383q-83 -206 -88 -272h-162l303 550h-196q-16 0 -27.5 -2t-21.5 -10l-91 -71v188h438z" />
    <glyph glyph-name="eight" unicode="8" horiz-adv-x="512" 
d="M294 392q64 70 64 129q0 45 -25 71.5t-66 26.5q-44 0 -70 -25.5t-26 -70.5q0 -36 31 -65t92 -66zM325 368q40 -24 69 -46t47.5 -45t27.5 -48.5t9 -58.5q0 -85 -61.5 -135.5t-171.5 -50.5q-47 0 -86 13t-66.5 36t-43 55t-15.5 70q0 56 36 98t111 76q-58 40 -86 78.5
t-28 90.5q0 76 51 119t148 43q85 0 131.5 -39t46.5 -103q0 -100 -119 -153zM208 311q-69 -55 -69 -158q0 -58 30.5 -91t79.5 -33q51 0 82.5 33t31.5 84q0 24 -10 44t-29.5 38.5t-48.5 38.5t-67 44z" />
    <glyph glyph-name="nine" unicode="9" horiz-adv-x="512" 
d="M357 323q3 36 3 65q0 121 -25 179.5t-82 58.5q-102 0 -102 -160q0 -156 130 -156q33 0 76 13zM25 47q21 -4 42 -5.5t42 -1.5q228 0 249 246q-35 -17 -69.5 -24.5t-66.5 -7.5q-43 0 -80 15t-64 41t-42.5 63t-15.5 80q0 47 16.5 85t48 66t76.5 43t102 15q106 0 166.5 -71
t60.5 -206q0 -97 -21 -170.5t-60 -123.5t-95 -75.5t-126 -25.5q-101 0 -163 57z" />
    <glyph glyph-name="colon" unicode=":" horiz-adv-x="241" 
d="M115 463q69 0 69 -62q0 -30 -17 -43.5t-52 -13.5q-63 0 -63 57q0 30 16.5 46t46.5 16zM115 112q69 0 69 -63q0 -30 -17 -43.5t-52 -13.5q-63 0 -63 57q0 30 16.5 46.5t46.5 16.5z" />
    <glyph glyph-name="semicolon" unicode=";" horiz-adv-x="241" 
d="M115 463q69 0 69 -62q0 -30 -17 -43.5t-52 -13.5q-63 0 -63 57q0 30 16.5 46t46.5 16zM66 -132q32 49 37 128h-3q-27 0 -42.5 14t-15.5 38q0 61 66 61q34 0 52 -22.5t18 -64.5q0 -28 -8.5 -54t-23.5 -46.5t-35.5 -34.5t-44.5 -19z" />
    <glyph glyph-name="less" unicode="&#x3c;" horiz-adv-x="833" 
d="M704 484l-456 -186l456 -186v-89l-575 236v78l575 237v-90z" />
    <glyph glyph-name="equal" unicode="=" horiz-adv-x="833" 
d="M709 440v-82h-585v82h585zM709 238v-81h-585v81h585z" />
    <glyph glyph-name="greater" unicode="&#x3e;" horiz-adv-x="833" 
d="M704 337v-78l-575 -236v89l456 186l-456 186v90z" />
    <glyph glyph-name="question" unicode="?" horiz-adv-x="421" 
d="M165 154q-1 5 -1 10v10q0 29 7 52.5t21 47.5q18 33 36 62t32 56.5t22.5 54.5t8.5 56q0 57 -28.5 87t-67.5 30q-25 0 -50 -20l-117 -100v138q45 14 93 20t100 6q49 0 88.5 -12t67 -33t42.5 -50t15 -63q0 -58 -50 -125q-38 -49 -75.5 -82.5t-61.5 -61.5q-15 -17 -22 -32.5
t-7 -36.5q0 -3 0.5 -6.5t0.5 -7.5h-54zM191 103q68 0 68 -58q0 -23 -17.5 -38t-47.5 -15q-32 0 -49 14t-17 39q0 26 17.5 42t45.5 16z" />
    <glyph glyph-name="at" unicode="@" horiz-adv-x="1000" 
d="M602 345q-7 42 -30 64t-60 22q-31 0 -58 -16.5t-47.5 -45.5t-32.5 -68t-12 -84q0 -49 22 -74.5t63 -25.5q43 0 79 31.5t49 85.5zM573 138q-27 -43 -62.5 -62.5t-85.5 -19.5q-75 0 -114 42t-39 122q0 59 18.5 108.5t50 86t73.5 57t88 20.5q84 0 121 -69l27 52h75l-72 -286
q-2 -8 -3 -13.5t-1 -10.5q0 -19 13 -30t34 -11q23 0 50.5 14t53.5 42q35 37 53.5 86t18.5 106q0 61 -23.5 112t-66.5 88t-104 57.5t-136 20.5q-135 0 -230 -61q-89 -56 -136.5 -142.5t-47.5 -192.5q0 -76 26.5 -138t75.5 -105.5t118.5 -67.5t154.5 -24q82 0 158.5 24
t141.5 69l33 -48q-147 -111 -329 -111q-189 0 -309 93q-150 114 -150 309q0 81 25.5 153.5t74.5 132.5q72 88 172 133t225 45q84 0 155.5 -22.5t122.5 -61.5q129 -99 129 -262q0 -80 -31.5 -147.5t-90.5 -115.5q-69 -55 -155 -55q-102 0 -102 81v2z" />
    <glyph glyph-name="A" unicode="A" horiz-adv-x="572" 
d="M525 116q12 -35 29.5 -63.5t43.5 -52.5h-221q16 19 24 33t8 26q0 8 -3 20t-8 27l-46 148h-184l-50 -143q-6 -17 -10 -30t-4 -24q0 -23 28 -57h-158q36 37 52 72t28 65l199 505l83 25zM182 302h155l-74 235z" />
    <glyph glyph-name="B" unicode="B" horiz-adv-x="556" 
d="M260 655q55 0 95.5 -3.5t70.5 -23.5t47.5 -53t17.5 -71q0 -63 -41 -107.5t-115 -56.5q44 -1 78.5 -14t59.5 -35.5t38 -52t13 -64.5q0 -85 -61 -129.5t-182 -44.5h-244q27 47 32 81t5 63v367q0 29 -5 63t-32 81h223zM200 360h42q56 0 85 33.5t29 92.5q0 126 -104 126h-52
v-252zM200 44h54q64 0 99 36.5t35 96.5q0 139 -152 139h-36v-272z" />
    <glyph glyph-name="C" unicode="C" horiz-adv-x="546" 
d="M522 506l-125 97q-12 10 -23 12.5t-26 2.5q-81 0 -131.5 -76.5t-50.5 -219.5q0 -69 13 -123t36.5 -90.5t56 -55.5t71.5 -19q25 0 38.5 7t24.5 16l126 94l-19 -145q-109 -21 -170 -21q-155 0 -235 83t-80 242q0 83 23 148.5t66.5 112t106.5 71t143 24.5q73 0 155 -21v-139
z" />
    <glyph glyph-name="D" unicode="D" horiz-adv-x="660" 
d="M295 655q163 0 246 -81t83 -236q0 -79 -23 -141.5t-74 -114.5q-25 -26 -53.5 -42t-60.5 -25t-68.5 -12t-79.5 -3h-228q27 47 32 81t5 63v367q0 29 -5 63t-32 81h258zM199 46h98q91 0 139 71t48 208q0 149 -48.5 216.5t-155.5 67.5h-81v-563z" />
    <glyph glyph-name="E" unicode="E" horiz-adv-x="516" 
d="M461 655v-143l-99 79q-17 13 -33 15.5t-37 2.5h-9h-82v-250h73q29 0 43 6.5t27 16.5l72 52v-196l-84 59q-17 11 -32 13t-32 2h-67v-266h99q35 0 63 21l115 87l-21 -154h-417q27 47 31.5 81t4.5 63v367q0 29 -4.5 63t-31.5 81h421z" />
    <glyph glyph-name="F" unicode="F" horiz-adv-x="456" 
d="M454 655v-143l-99 79q-17 13 -33 15.5t-37 2.5h-9h-82v-250h73q29 0 43 6.5t27 16.5l72 52v-196l-84 59q-17 11 -32 13t-32 2h-67v-168q0 -29 4.5 -63t32.5 -81h-198q27 47 31.5 81t4.5 63v367q0 29 -4.5 63t-31.5 81h421z" />
    <glyph glyph-name="G" unicode="G" horiz-adv-x="600" 
d="M546 509l-119 89q-26 19 -62 19q-91 0 -144.5 -75.5t-53.5 -217.5q0 -143 53.5 -216t154.5 -73q18 0 40 5v117q0 15 -1.5 28.5t-6.5 26.5l-24 59h198l-28 -57q-10 -20 -10 -54v-152q-95 -22 -206 -22q-146 0 -226.5 84.5t-80.5 239.5q0 82 24 148t67.5 112t104.5 71
t135 25q47 0 93 -5.5t92 -17.5v-134z" />
    <glyph glyph-name="H" unicode="H" horiz-adv-x="640" 
d="M236 655q-28 -47 -32.5 -81t-4.5 -63v-150h242v150q0 29 -5 63t-32 81h199q-28 -47 -32.5 -81t-4.5 -63v-367q0 -29 4.5 -63t32.5 -81h-199q27 47 32 81t5 63v168h-242v-168q0 -29 4.5 -63t32.5 -81h-199q27 47 32 81t5 63v367q0 29 -5 63t-32 81h199z" />
    <glyph glyph-name="I" unicode="I" horiz-adv-x="273" 
d="M236 655q-28 -47 -32.5 -81t-4.5 -63v-367q0 -29 4.5 -63t32.5 -81h-199q27 47 32 81t5 63v367q0 29 -5 63t-32 81h199z" />
    <glyph glyph-name="J" unicode="J" horiz-adv-x="280" 
d="M250 655q-28 -47 -32.5 -81t-4.5 -63v-469v-24q0 -47 -6 -86.5t-38 -75.5q-54 -62 -178 -62q-22 0 -44 2t-45 5v125l87 -63q10 -7 18 -13t21 -6q22 0 34 10.5t18 31t7 51t1 70.5v11v493q0 29 -5 63t-32 81h199z" />
    <glyph glyph-name="K" unicode="K" horiz-adv-x="567" 
d="M236 655q-28 -47 -32.5 -81t-4.5 -63v-367q0 -29 4.5 -63t32.5 -81h-199q27 47 32 81t5 63v367q0 29 -5 63t-32 81h199zM590 655q-42 -28 -70.5 -53.5t-44.5 -42.5l-156 -173l175 -281q14 -23 36.5 -48.5t70.5 -56.5h-188l-206 336l203 244q16 20 16 32q0 24 -26 43h190z
" />
    <glyph glyph-name="L" unicode="L" horiz-adv-x="449" 
d="M238 655q-28 -47 -32.5 -81t-4.5 -63v-465h75q35 0 63 21l115 87l-21 -154h-393q27 47 31.5 81t4.5 63v367q0 29 -4.5 63t-31.5 81h198z" />
    <glyph glyph-name="M" unicode="M" horiz-adv-x="801" 
d="M205 655l199 -479l207 479h148q-28 -47 -32.5 -81t-4.5 -63v-367q0 -29 4.5 -63t32.5 -81h-197q27 47 32 81t5 63v328l-205 -472h-55l-198 472v-328v-6q0 -28 5 -60.5t31 -77.5h-137q27 47 32 81t5 63v367q0 29 -5 63t-32 81h165z" />
    <glyph glyph-name="N" unicode="N" horiz-adv-x="641" 
d="M186 655l318 -454v310q0 29 -4.5 63t-31.5 81h138q-26 -45 -31 -77.5t-5 -60.5v-6v-516h-75l-354 501v-352q0 -29 4.5 -63t32.5 -81h-138q27 47 31.5 81t4.5 63v367q0 29 -4.5 63t-31.5 81h146z" />
    <glyph glyph-name="O" unicode="O" horiz-adv-x="671" 
d="M32 314q0 83 21.5 148t62 110t98 68.5t128.5 23.5q68 0 122.5 -22.5t93.5 -65t60 -103.5t21 -138q0 -82 -22 -147t-62.5 -110t-98 -69t-128.5 -24q-67 0 -121.5 22.5t-93.5 65t-60 103.5t-21 138zM332 616q-160 0 -160 -291t160 -291q86 0 127 72t41 219q0 148 -41 219.5
t-127 71.5z" />
    <glyph glyph-name="P" unicode="P" horiz-adv-x="509" 
d="M287 655q102 0 155.5 -50.5t53.5 -141.5q0 -43 -15.5 -79.5t-45 -62.5t-72 -40.5t-97.5 -14.5q-14 0 -30.5 0.5t-36.5 1.5v-124v-14q0 -24 5 -55.5t31 -74.5h-197q27 47 31.5 81t4.5 63v367q0 29 -4.5 63t-31.5 81h249zM197 311q12 -1 21 -1h14q122 0 122 152
q0 72 -27 110t-75 38h-55v-299z" />
    <glyph glyph-name="Q" unicode="Q" horiz-adv-x="671" 
d="M332 616q-78 0 -119 -72t-41 -216q0 -288 164 -288t164 288q0 146 -41 217t-127 71zM574 -89q22 -14 42 -22.5t48 -8.5h22.5t34.5 2q-106 -88 -162 -88t-142 76l-144 126q-120 25 -180.5 106t-60.5 216q0 82 22 146.5t62.5 109t98 68t128.5 23.5q68 0 122.5 -22.5
t93 -64.5t59.5 -102.5t21 -136.5q0 -139 -59.5 -225.5t-162.5 -107.5z" />
    <glyph glyph-name="R" unicode="R" horiz-adv-x="551" 
d="M292 655q76 0 91 -6q109 -39 109 -145q0 -68 -38 -111t-113 -57l147 -225q41 -62 102 -111h-178l-213 334v-190q0 -29 4.5 -63t32.5 -81h-199q27 47 32 81t5 63v367q0 29 -5 63t-32 81h255zM199 352h49q57 0 83.5 31.5t26.5 99.5t-26.5 99t-83.5 31h-49v-261z" />
    <glyph glyph-name="S" unicode="S" horiz-adv-x="479" 
d="M420 511l-104 83q-14 11 -27 17t-36 6q-50 0 -79.5 -26.5t-29.5 -68.5q0 -36 24 -58t68 -49l87 -54q60 -37 89.5 -76t29.5 -102q0 -92 -59 -141t-176 -49q-44 0 -87 7.5t-88 21.5v151l114 -107q18 -17 34 -21t40 -4q51 0 81 27.5t30 71.5q0 35 -21 59t-61 50l-96 63
q-56 36 -82.5 75t-26.5 99q0 87 58.5 133.5t170.5 46.5q33 0 69.5 -4t77.5 -13v-138z" />
    <glyph glyph-name="T" unicode="T" horiz-adv-x="544" 
d="M544 655v-146l-103 82q-7 5 -19.5 9t-25.5 4h-56v-460q0 -29 4.5 -63t32.5 -81h-198q27 47 31.5 81t4.5 63v460h-58q-12 0 -23.5 -4t-18.5 -9l-103 -82v146h532z" />
    <glyph glyph-name="U" unicode="U" horiz-adv-x="632" 
d="M225 655q-26 -45 -30 -78.5t-4 -62.5v-297q0 -92 30.5 -136.5t109.5 -44.5q105 0 138 70q11 22 13 47.5t2 55.5v41v264q0 30 -5 63.5t-30 77.5h154q-29 -47 -34 -81t-5 -63v-280v-14q0 -39 -3 -73t-19 -64q-24 -46 -82.5 -71t-147.5 -25q-130 0 -187.5 49t-57.5 156v322
q0 29 -5 63t-34 81h197z" />
    <glyph glyph-name="V" unicode="V" horiz-adv-x="562" 
d="M196 655q-14 -20 -22 -34t-8 -25q0 -7 3.5 -18.5t8.5 -28.5l131 -405l147 426q6 18 6 31q0 12 -8 24.5t-20 29.5h157q-47 -48 -73 -116l-203 -539h-82l-187 544q-10 28 -25 55t-46 56h221z" />
    <glyph glyph-name="W" unicode="W" horiz-adv-x="880" 
d="M206 655q-30 -34 -30 -61q0 -5 2 -13.5t6 -22.5l99 -388l144 485h75l145 -491l111 411q2 9 3 15.5t1 9.5q0 23 -26 55h155q-25 -27 -41.5 -54t-27.5 -62l-166 -539h-90l-135 459l-132 -459h-90l-156 546q-9 31 -24 57t-44 52h221z" />
    <glyph glyph-name="X" unicode="X" horiz-adv-x="586" 
d="M243 655q-24 -28 -24 -45q0 -14 20 -48l80 -142l90 151q8 14 11 24.5t3 13.5q0 12 -23 46h162q-38 -38 -85 -104l-131 -180l158 -275q9 -16 29.5 -40.5t53.5 -55.5h-230q11 17 17.5 27.5t6.5 16.5q0 8 -4.5 17.5t-12.5 23.5l-96 173l-104 -174q-12 -19 -12 -37t26 -47
h-166q24 23 47 51.5t46 62.5l136 193l-139 241q-27 47 -88 107h229z" />
    <glyph glyph-name="Y" unicode="Y" horiz-adv-x="521" 
d="M185 655q-22 -32 -22 -47q0 -13 16 -41l122 -212l110 221l7.5 15t3.5 18q0 15 -22 46h162q-19 -17 -45.5 -47t-54.5 -76l-134 -224v-164v-6q0 -28 5 -60.5t31 -77.5h-198q27 47 32 81t5 63v145l-155 263q-34 57 -87 103h224z" />
    <glyph glyph-name="Z" unicode="Z" horiz-adv-x="535" 
d="M517 655l-337 -606h177q17 0 33 7.5t35 21.5t41.5 33.5t51.5 42.5l-19 -154h-490l337 605h-145q-35 0 -68 -26t-83 -70v146h467z" />
    <glyph glyph-name="bracketleft" unicode="[" horiz-adv-x="255" 
d="M233 708q-20 -26 -33 -43t-19 -26q-8 -11 -9.5 -22.5t-1.5 -24.5v-23v-638v-14q0 -12 1.5 -24t8 -26t19 -32.5t34.5 -42.5h-171v916h171z" />
    <glyph glyph-name="backslash" unicode="\" horiz-adv-x="231" 
d="M69 710l159 -914h-68l-160 914h69z" />
    <glyph glyph-name="bracketright" unicode="]" horiz-adv-x="255" 
d="M192 708v-916h-170q18 24 31 41.5t20 28.5q8 11 9.5 22.5t1.5 24.5v22v638v14q0 12 -1.5 24t-7.5 26.5t-18.5 32.5t-34.5 42h170z" />
    <glyph glyph-name="asciicircum" unicode="^" horiz-adv-x="1000" 
d="M553 713l242 -274h-101l-194 194l-195 -194h-101l243 274h106z" />
    <glyph glyph-name="underscore" unicode="_" 
d="M500 -152v-84h-500v84h500z" />
    <glyph glyph-name="grave" unicode="`" 
d="M345 528h-45l-222 150h143z" />
    <glyph glyph-name="a" unicode="a" horiz-adv-x="477" 
d="M412 150q0 -32 5.5 -63t30.5 -68l-128 -27q-17 25 -23 62q-42 -32 -76 -47t-58 -15q-27 0 -50.5 10t-40.5 28t-26.5 42.5t-9.5 53.5q0 70 51 102.5t157 32.5q13 0 26 -0.5t27 -1.5v73q0 47 -15 69t-57 22q-31 0 -63.5 -28.5t-84.5 -78.5v127q46 14 89.5 20t85.5 6
q53 0 88.5 -10.5t55.5 -35.5q11 -14 13.5 -33.5t2.5 -44.5v-12v-183zM297 229q-75 -6 -110.5 -26t-35.5 -65q0 -38 23.5 -58.5t66.5 -20.5q15 0 28.5 1t27.5 4v165z" />
    <glyph glyph-name="b" unicode="b" horiz-adv-x="535" 
d="M181 406q87 63 153 63q35 0 65.5 -16t53.5 -45t36 -70t13 -91q0 -56 -16.5 -102.5t-46.5 -80t-71.5 -52t-91.5 -18.5q-53 0 -95 33l-120 -35v539q0 37 -9 68.5t-36 69.5l165 39v-302zM181 59q36 -12 64 -12q60 0 97.5 47.5t37.5 132.5q0 83 -37.5 129t-101.5 46
q-13 0 -28 -2t-32 -5v-336z" />
    <glyph glyph-name="c" unicode="c" horiz-adv-x="433" 
d="M400 322l-104 82q-12 10 -22.5 15t-22.5 5q-20 0 -37.5 -13.5t-31 -37.5t-21.5 -57.5t-8 -74.5q0 -184 189 -184q23 0 44 2t41 7q-78 -78 -182 -78q-46 0 -85.5 16.5t-68 47t-44.5 73.5t-16 95q0 57 18 103.5t51 79t80 50.5t105 18q30 0 59 -5t56 -14v-130z" />
    <glyph glyph-name="d" unicode="d" horiz-adv-x="544" 
d="M473 172v-14q0 -25 5 -56t31 -77l-155 -36v67q-45 -30 -80.5 -47t-66.5 -17q-36 0 -67.5 16t-55 45t-37 70t-13.5 90q0 56 17 103.5t46.5 81.5t68.5 53t83 19q55 0 105 -31v101q0 41 -12.5 69t-30.5 61l162 37v-535zM354 404q-27 13 -57 13q-62 0 -101 -48.5t-39 -131.5
q0 -85 38.5 -131t107.5 -46q21 0 51 6v338z" />
    <glyph glyph-name="e" unicode="e" horiz-adv-x="472" 
d="M318 293q0 67 -20.5 101.5t-55.5 34.5q-87 0 -90 -160zM152 251v-8q0 -92 48 -139.5t141 -47.5q22 0 49 3t59 8q-86 -80 -195 -80q-51 0 -93 16.5t-71 47.5t-45 74t-16 97t17 99.5t47 78.5t72.5 51t93.5 18q85 0 136 -55.5t51 -157.5v-5h-294z" />
    <glyph glyph-name="f" unicode="f" horiz-adv-x="303" 
d="M405 577l-101 71q-9 7 -17.5 11.5t-19.5 4.5q-27 0 -44 -23t-17 -69v-109h99v-49h-99v-271v-17q0 -26 5 -56t30 -70h-196q23 41 32 72t9 68v274h-65v49h65v76q0 37 14.5 67.5t40.5 53t62.5 35t81.5 12.5q25 0 55 -4t65 -12v-114z" />
    <glyph glyph-name="g" unicode="g" horiz-adv-x="513" 
d="M502 380l-133 44q26 -25 39.5 -52.5t13.5 -60.5q0 -28 -13.5 -54t-37.5 -45t-58 -30.5t-76 -11.5q-10 0 -23 1.5t-30 3.5q-8 -24 -8 -38q0 -23 16 -32.5t50 -9.5h106q67 0 99.5 -23.5t32.5 -82.5q0 -36 -19.5 -72.5t-56.5 -65.5q-75 -57 -191 -57q-46 0 -83.5 9.5
t-64.5 24.5t-41.5 34.5t-14.5 39.5q0 26 26 49t78 49q-39 26 -39 62q0 29 26 54.5t77 60.5q-67 14 -102 49t-35 88q0 33 14 61.5t38.5 49.5t59 32.5t74.5 11.5q37 0 68.5 -8t62.5 -27l145 35v-89zM229 434q-72 0 -72 -102q0 -59 21.5 -92.5t56.5 -33.5q75 0 75 96
q0 63 -22 97.5t-59 34.5zM121 -4q-25 -42 -25 -70q0 -35 34.5 -58t96.5 -23q37 0 67 8t51.5 21.5t33 30t11.5 34.5q0 25 -16 35.5t-49 10.5h-138q-19 0 -35 1.5t-31 9.5z" />
    <glyph glyph-name="h" unicode="h" horiz-adv-x="539" 
d="M190 405q56 31 97 47.5t72 16.5q59 0 86 -42t27 -127v-156q0 -29 4.5 -63t32.5 -81h-194q27 47 32 81t5 63v113q0 39 -4 66t-16.5 44.5t-35 25t-59.5 7.5q-12 0 -23.5 -1.5t-23.5 -3.5v-251v-6q0 -28 5 -60.5t31 -77.5h-193q27 47 31.5 81t4.5 63v387q0 37 -9 68.5
t-36 69.5l166 39v-303z" />
    <glyph glyph-name="i" unicode="i" horiz-adv-x="272" 
d="M138 677q73 0 73 -57q0 -56 -73 -56t-73 56q0 57 73 57zM200 144q0 -29 4.5 -63t32.5 -81h-194q27 47 32 81t5 63v152q0 37 -8.5 70t-28.5 68l157 39v-329z" />
    <glyph glyph-name="j" unicode="j" horiz-adv-x="275" 
d="M145 684q73 0 73 -56q0 -57 -73 -57t-73 57q0 56 73 56zM207 9q0 -216 -214 -216q-32 0 -57 7v117l67 -58q8 -7 14.5 -12t17.5 -5q31 0 41.5 31.5t10.5 92.5v330q0 37 -8.5 70t-28.5 68l157 39v-464z" />
    <glyph glyph-name="k" unicode="k" horiz-adv-x="505" 
d="M190 144v-6q0 -28 5 -60.5t31 -77.5h-193q27 47 31.5 81t4.5 63v387q0 37 -9 68.5t-36 69.5l166 39v-564zM519 463q-60 -32 -89 -56.5t-38 -32.5l-91 -80l128 -194q17 -26 38 -51.5t57 -48.5h-172l-153 243l132 151q15 18 15 33q0 11 -18 36h191z" />
    <glyph glyph-name="l" unicode="l" horiz-adv-x="275" 
d="M194 144q0 -29 4.5 -63t32.5 -81h-194q27 47 32 81t5 63v387q0 37 -9 68.5t-36 69.5l165 39v-564z" />
    <glyph glyph-name="m" unicode="m" horiz-adv-x="822" 
d="M200 405q55 31 95.5 47.5t71.5 16.5q69 0 99 -67q58 32 102 49.5t76 17.5q62 0 87 -42t25 -127v-156v-6q0 -28 5 -60.5t31 -77.5h-193q27 47 31.5 81t4.5 63v113q0 36 -3.5 63t-14 44t-30.5 25.5t-52 8.5q-33 0 -65 -6q5 -19 6.5 -42t1.5 -50v-156v-6q0 -28 5 -60.5
t31 -77.5h-193q27 47 31.5 81t4.5 63v113q0 39 -4 66t-15.5 44t-33 25t-56.5 8q-21 0 -48 -5v-251q0 -29 4.5 -63t32.5 -81h-194q27 47 32 81t5 63v152q0 37 -8.5 70t-28.5 68l157 39v-68z" />
    <glyph glyph-name="n" unicode="n" horiz-adv-x="544" 
d="M192 405q56 31 97 47.5t72 16.5q59 0 86.5 -42t27.5 -127v-156v-6q0 -28 5 -60.5t31 -77.5h-193q27 47 31.5 81t4.5 63v113q0 39 -4 66t-16 44.5t-34.5 25t-59.5 7.5q-21 0 -48 -5v-251q0 -29 4.5 -63t32.5 -81h-194q27 47 32 81t5 63v152q0 37 -8.5 70t-28.5 68l157 39
v-68z" />
    <glyph glyph-name="o" unicode="o" horiz-adv-x="539" 
d="M31 227q0 54 17 98.5t49 76.5t77 49.5t102 17.5q53 0 96 -17t73 -48t46.5 -75.5t16.5 -100.5q0 -55 -17 -100.5t-49 -77.5t-77.5 -49.5t-101.5 -17.5q-53 0 -96 17t-73 48.5t-46.5 77t-16.5 101.5zM268 432q-47 0 -76 -51t-29 -151q0 -102 29.5 -155.5t77.5 -53.5
q49 0 78 52t29 154q0 100 -29 152.5t-80 52.5z" />
    <glyph glyph-name="p" unicode="p" horiz-adv-x="544" 
d="M189 407q45 30 80.5 46.5t66.5 16.5q36 0 67.5 -16t55 -45t37 -69.5t13.5 -90.5q0 -56 -17 -103.5t-46 -81.5t-68.5 -53t-83.5 -19q-55 0 -105 32v-86q0 -38 7.5 -72t29.5 -72h-193q22 37 29.5 71.5t7.5 72.5v353v11q0 26 -5 58.5t-31 77.5l155 35v-66zM189 58
q27 -13 57 -13q62 0 101 49t39 134q0 83 -39 128.5t-107 45.5q-18 0 -51 -6v-338z" />
    <glyph glyph-name="q" unicode="q" horiz-adv-x="539" 
d="M476 -62q0 -38 7.5 -72t29.5 -72h-193q22 37 29.5 71.5t7.5 72.5v118q-45 -30 -80 -47t-66 -17q-36 0 -67.5 16t-55.5 45t-37.5 70t-13.5 90q0 56 17 103.5t46.5 82t69 53.5t83.5 19q28 0 53 -8t51 -24l119 33v-534zM357 404q-27 13 -57 13q-62 0 -101 -48.5t-39 -131.5
q0 -85 38.5 -130.5t107.5 -45.5q11 0 23.5 1t27.5 4v338z" />
    <glyph glyph-name="r" unicode="r" horiz-adv-x="366" 
d="M195 389q39 38 68 59t60 21q23 0 43 -11v-128q-32 26 -58 39.5t-61 13.5q-11 0 -23.5 -1t-28.5 -3v-235q0 -29 4.5 -63t32.5 -81h-194q27 47 32 81t5 63v152q0 37 -8.5 70t-28.5 68l157 39v-84z" />
    <glyph glyph-name="s" unicode="s" horiz-adv-x="396" 
d="M346 336q-54 40 -87.5 64t-53.5 24q-24 0 -40.5 -15.5t-16.5 -38.5q0 -22 14.5 -37.5t41.5 -30.5l68 -38q47 -26 70 -55.5t23 -74.5q0 -66 -48.5 -107.5t-133.5 -41.5q-35 0 -72.5 6t-75.5 20v116q56 -43 92 -69.5t65 -26.5q26 0 43.5 17.5t17.5 42.5q0 27 -17.5 41
t-44.5 31l-69 42q-42 26 -62.5 55t-20.5 70q0 65 45.5 102t130.5 37q67 0 131 -19v-114z" />
    <glyph glyph-name="t" unicode="t" horiz-adv-x="354" 
d="M190 463h150v-49h-150v-259q0 -28 4 -46.5t15.5 -30t30.5 -16.5t49 -5q16 0 34 1t38 3q-31 -33 -76.5 -51t-96.5 -18q-35 0 -57.5 8t-36 24t-18.5 41.5t-5 59.5v289h-77q51 34 99 80t97 103v-134z" />
    <glyph glyph-name="u" unicode="u" horiz-adv-x="536" 
d="M189 170q0 -58 23.5 -84t80.5 -26q11 0 25.5 2t32.5 4v230q0 37 -8.5 70t-28.5 68l157 39v-298q0 -29 4.5 -63t32.5 -81l-157 -39v64q-52 -31 -93 -47.5t-73 -16.5q-116 0 -116 155v149q0 37 -9 70t-29 68l158 39v-303z" />
    <glyph glyph-name="v" unicode="v" horiz-adv-x="440" 
d="M195 463q-15 -22 -23.5 -36.5t-8.5 -25.5q0 -12 9 -39l88 -254l78 240q5 16 8 28t3 23q0 18 -26 64h152q-34 -34 -49 -62.5t-24 -51.5l-142 -357h-70l-135 341q-12 30 -28.5 62.5t-50.5 67.5h219z" />
    <glyph glyph-name="w" unicode="w" horiz-adv-x="701" 
d="M187 463q-12 -20 -20 -32.5t-8 -21.5q0 -7 2 -14.5t4 -15.5l74 -249l112 333h58l112 -333l74 257q5 18 5 27q0 11 -6.5 22.5t-18.5 26.5h144q-40 -41 -53.5 -73t-21.5 -52l-125 -344h-74l-101 296l-100 -296h-74l-127 368q-8 24 -21.5 48t-45.5 53h211z" />
    <glyph glyph-name="x" unicode="x" horiz-adv-x="477" 
d="M212 463q-18 -21 -18 -35q0 -13 11 -30l50 -84l55 85q5 7 8.5 13.5t3.5 15.5q0 7 -20 35h150q-20 -11 -40 -32t-43 -50l-86 -110l101 -164q19 -30 40 -56t47 -51h-209q19 25 19 37q0 9 -3.5 16t-8.5 15l-63 101l-65 -104q-10 -16 -10 -28q0 -11 21 -37h-151q21 16 41 38
t41 50l95 125l-94 153q-14 23 -32.5 47.5t-47.5 49.5h208z" />
    <glyph glyph-name="y" unicode="y" horiz-adv-x="456" 
d="M198 463q-14 -20 -22 -34.5t-8 -27.5q0 -9 7 -30l95 -256l77 246q8 27 8 38t-7 26t-20 38h151q-29 -29 -46 -60t-31 -66l-138 -356q-18 -48 -35 -83t-36.5 -58t-44.5 -34t-61 -11q-15 0 -33.5 2t-39.5 6v118l63 -49q25 -19 40 -19q25 0 44.5 32.5t46.5 98.5l-157 372
q-5 13 -18.5 40t-51.5 67h217z" />
    <glyph glyph-name="z" unicode="z" horiz-adv-x="461" 
d="M437 463l-249 -418h104q11 0 20 2.5t18 10.5l98 78v-136h-406l248 418h-72q-19 0 -41 -15l-93 -70v130h373z" />
    <glyph glyph-name="braceleft" unicode="{" 
d="M427 634q-6 0 -12 0.5t-11 0.5q-29 0 -47 -5.5t-27.5 -17.5t-13 -32t-3.5 -50v-118q0 -34 -4 -59.5t-15 -43.5t-30 -30t-50 -20q31 -7 50 -19.5t30 -31t15 -43.5t4 -59v-117q0 -30 3.5 -50t13.5 -32.5t28 -18t47 -5.5q5 0 10.5 0.5t11.5 0.5v-86h-31q-44 0 -76.5 5
t-56.5 19q-33 20 -41.5 55t-8.5 91v121q0 69 -25 98.5t-88 29.5q-5 0 -10.5 -0.5t-10.5 -0.5v87q5 0 10.5 -0.5t10.5 -0.5q63 0 88 29t25 98v121q0 56 8 91.5t42 55.5q26 15 60 19.5t82 4.5h22v-87z" />
    <glyph glyph-name="bar" unicode="|" 
d="M294 764v-1000h-87v1000h87z" />
    <glyph glyph-name="braceright" unicode="}" 
d="M74 721h22q47 0 81 -4.5t60 -19.5q34 -20 42 -56t8 -91v-121q0 -69 25 -98t88 -29q5 0 10.5 0.5t10.5 0.5v-87q-5 0 -10.5 0.5t-10.5 0.5q-63 0 -88 -29.5t-25 -98.5v-121q0 -55 -8 -90.5t-42 -55.5q-25 -15 -59.5 -19.5t-81.5 -4.5h-22v86q6 0 11.5 -0.5t10.5 -0.5
q29 0 47 5.5t28 18t13 32.5t3 50v117q0 34 4 59t15 43.5t30.5 31t50.5 19.5q-31 8 -50.5 20t-30.5 30.5t-15 43.5t-4 59v118q0 30 -3.5 50t-13 32t-27 17.5t-46.5 5.5q-5 0 -11 -0.5t-12 -0.5v87z" />
    <glyph glyph-name="asciitilde" unicode="~" horiz-adv-x="833" 
d="M747 293q-49 -34 -95 -51.5t-91 -17.5q-44 0 -93 17q-52 17 -98.5 32.5t-94.5 15.5q-44 0 -89 -19.5t-99 -57.5v91q103 70 189 70q43 0 77.5 -9t65.5 -20q37 -13 71.5 -24.5t71.5 -11.5q44 0 89 19t96 56v-90z" />
    <glyph glyph-name="exclamdown" unicode="&#xa1;" horiz-adv-x="225" 
d="M117 663q29 0 46 -14.5t17 -38.5q0 -27 -18 -42.5t-50 -15.5q-30 0 -47 15.5t-17 42.5q0 25 17.5 39t51.5 14zM137 500l54 -500h-154l52 500h48z" />
    <glyph glyph-name="cent" unicode="&#xa2;" horiz-adv-x="512" 
d="M292 528v-60q5 1 10.5 1h11.5q53 0 122 -18v-129l-114 85q-7 6 -30 14v-355q16 -6 33.5 -8t38.5 -2q57 0 97 9q-34 -35 -75.5 -53t-93.5 -24v-58h-33v57q-97 11 -149.5 71.5t-52.5 160.5q0 48 14 89.5t40.5 74t64 54t83.5 28.5v63h33zM259 420q-37 -17 -59 -62.5
t-22 -116.5q0 -126 81 -166v345z" />
    <glyph glyph-name="sterling" unicode="&#xa3;" horiz-adv-x="512" 
d="M444 515l-94 86q-8 8 -20.5 13t-23.5 5q-53 0 -79 -49q-9 -17 -11 -43t-2 -61v-41v-25.5t1 -26.5h119v-47h-119v-101q0 -36 -23.5 -71.5t-71.5 -66.5q5 1 11 1.5t11 0.5q8 0 50 -3l133 -11h7h15q30 0 60 17t68 49l-31 -97q-22 -67 -80 -67q-35 0 -72 5t-76 10.5t-79 10.5
t-81 5q-7 0 -15.5 -1t-17.5 -3l31 80q23 11 30.5 36t7.5 70v136h-66v47h66v89q0 202 210 202q44 0 80 -5.5t62 -14.5v-129z" />
    <glyph glyph-name="currency" unicode="&#xa4;" horiz-adv-x="606" 
d="M181 599q53 40 122 40q70 0 123 -40l99 99l46 -45l-100 -100q39 -52 39 -121q0 -68 -39 -121l100 -100l-46 -45l-99 100q-55 -40 -122 -40q-70 0 -123 40l-99 -100l-45 45l99 100q-39 53 -39 121q0 69 39 121l-99 100l45 45zM304 574q-29 0 -55 -11.5t-45.5 -31
t-30.5 -45t-11 -54.5t11 -55t30.5 -45t45 -30t55.5 -11t55.5 11t45 30t30.5 45t11 55t-11 54.5t-30.5 45t-45.5 31t-55 11.5z" />
    <glyph glyph-name="yen" unicode="&#xa5;" horiz-adv-x="532" 
d="M187 655q-23 -34 -23 -47q0 -12 17 -41l49 -87h133l49 96l7.5 15t3.5 18q0 15 -22 46h162q-19 -17 -45.5 -47t-54.5 -76l-31 -52h91v-48h-120l-57 -94h177v-47h-194v-147v-6q0 -28 5 -60.5t31 -77.5h-198q27 47 32 81t5 63v147h-192v47h163l-56 94h-107v48h79l-42 72
q-32 56 -86 103h224zM302 356l38 76h-82z" />
    <glyph glyph-name="brokenbar" unicode="&#xa6;" 
d="M294 699v-370h-87v370h87zM294 199v-370h-87v370h87z" />
    <glyph glyph-name="section" unicode="&#xa7;" horiz-adv-x="475" 
d="M406 516l-116 87q-9 7 -22 11.5t-24 4.5q-27 0 -45 -19t-18 -50q0 -20 9.5 -34.5t27.5 -28.5t44 -29t58 -36t56.5 -39t41.5 -37.5t26 -42.5t9 -53q0 -104 -137 -162q42 -37 63 -68.5t21 -75.5q0 -66 -47.5 -102t-140.5 -36q-63 0 -143 18v132l112 -84q8 -6 17 -13t32 -7
q30 0 48.5 19t18.5 50q0 19 -8 33t-22.5 26.5t-35 26t-46.5 30.5q-39 26 -69 47t-51 42t-32 46t-11 58q0 106 135 159q-82 59 -82 134q0 63 51.5 102t146.5 39q58 0 133 -18v-130zM189 366q-55 -38 -55 -101q0 -54 57 -92l91 -61q29 18 44 44t15 55q0 57 -64 98z" />
    <glyph glyph-name="dieresis" unicode="&#xa8;" 
d="M97 599q0 27 15.5 42.5t42.5 15.5q54 0 54 -58q0 -25 -15 -39t-43 -14q-54 0 -54 53zM293 599q0 27 15.5 42.5t42.5 15.5q54 0 54 -58q0 -25 -15 -39t-43 -14q-54 0 -54 53z" />
    <glyph glyph-name="copyright" unicode="&#xa9;" horiz-adv-x="833" 
d="M416 718q74 0 139 -26.5t118 -79.5q51 -51 78 -116t27 -139q0 -75 -26.5 -139.5t-77.5 -114.5q-54 -53 -120 -80.5t-138 -27.5t-137 27.5t-117 79.5t-79.5 117.5t-27.5 137.5t28 137.5t80 118.5q103 105 253 105zM417 665q-63 0 -118 -22t-99 -67q-45 -45 -68 -101.5
t-23 -117.5q0 -62 23 -117t68 -100t100.5 -68t116.5 -23t117 23.5t102 68.5q89 87 89 216q0 63 -22.5 118.5t-66.5 99.5q-45 45 -100.5 67.5t-118.5 22.5zM508 441q-5 36 -29.5 55.5t-63.5 19.5q-47 0 -75 -40.5t-28 -118.5q0 -75 28.5 -115t79.5 -40q38 0 62.5 21t29.5 61
h81q-4 -66 -52 -106t-124 -40q-89 0 -141.5 57.5t-52.5 158.5q0 51 14 92.5t40 70t62 44t80 15.5q72 0 118.5 -37.5t51.5 -97.5h-81z" />
    <glyph glyph-name="ordfeminine" unicode="&#xaa;" horiz-adv-x="358" 
d="M309 436q0 -22 4 -44t23 -48l-96 -19q-12 17 -17 44q-32 -23 -57.5 -33.5t-43.5 -10.5q-41 0 -68 26.5t-27 67.5q0 95 156 95q10 0 19.5 -0.5t20.5 -1.5v51q0 33 -11 48.5t-43 15.5q-23 0 -47.5 -20t-63.5 -55v89q35 10 67.5 14t63.5 4q40 0 66.5 -7.5t41.5 -24.5
q8 -10 10 -23.5t2 -31.5v-8v-128zM223 491q-57 -4 -83.5 -18t-26.5 -45q0 -26 18 -41t50 -15q23 0 42 4v115z" />
    <glyph glyph-name="guillemotleft" unicode="&#xab;" horiz-adv-x="366" 
d="M202 421l-88 -187l88 -174h-58l-105 174l105 187h58zM334 421l-89 -187l88 -174h-57l-106 174l106 187h58z" />
    <glyph glyph-name="logicalnot" unicode="&#xac;" horiz-adv-x="833" 
d="M709 421v-245h-81v164h-504v81h585z" />
    <glyph glyph-name="registered" unicode="&#xae;" horiz-adv-x="833" 
d="M416 718q75 0 140.5 -27t118.5 -81q51 -51 77 -115.5t26 -137.5q0 -75 -27 -140t-79 -116q-54 -52 -119.5 -79t-136.5 -27q-72 0 -138 28t-118 81q-51 52 -78 116.5t-27 136.5t28 138.5t81 119.5q103 103 252 103zM417 665q-127 0 -215 -88q-45 -46 -69 -102.5
t-24 -117.5t22.5 -116t66.5 -100q45 -45 100 -68.5t114 -23.5q130 0 223 90q44 42 67 97t23 116q0 131 -88 221q-92 92 -220 92zM425 566q86 0 128.5 -28t42.5 -82q0 -45 -23 -73.5t-67 -38.5l90 -183h-97l-80 169h-63v-169h-87v405h156zM356 384h57q48 0 71 14.5t23 47.5
q0 35 -24 50t-74 15h-53v-127z" />
    <glyph glyph-name="macron" unicode="&#xaf;" 
d="M416 631v-60h-332v60h332z" />
    <glyph glyph-name="degree" unicode="&#xb0;" horiz-adv-x="329" 
d="M165 713q30 0 56 -11.5t45.5 -31t31 -46t11.5 -56.5q0 -29 -11.5 -55.5t-31 -46t-46 -31t-56.5 -11.5t-56 11t-45.5 30.5t-30.5 46t-11 56.5t11.5 56.5t31 46t45.5 31t56 11.5zM165 659q-38 0 -64.5 -26t-26.5 -64t26.5 -64.5t64.5 -26.5t64 27t26 64q0 38 -26 64t-64 26
z" />
    <glyph glyph-name="plusminus" unicode="&#xb1;" horiz-adv-x="833" 
d="M458 589v-163h251v-81h-251v-163h-83v163h-251v81h251v163h83zM709 89v-82h-585v82h585z" />
    <glyph glyph-name="twosuperior" unicode="&#xb2;" horiz-adv-x="338" 
d="M237 321q33 0 81 39l-15 -101h-305q64 63 104.5 106t57.5 66q22 27 37 52.5t15 60.5q0 42 -18 64t-47 22q-22 0 -41 -15l-72 -58v86q38 8 68.5 11t55.5 3q72 0 109.5 -26.5t37.5 -76.5q0 -28 -13.5 -54t-40 -53.5t-64 -57.5t-85.5 -68h135z" />
    <glyph glyph-name="threesuperior" unicode="&#xb3;" horiz-adv-x="338" 
d="M194 465q59 -6 89.5 -31.5t30.5 -65.5q0 -56 -45.5 -86.5t-133.5 -30.5q-55 0 -115 12v90l72 -60q14 -13 37 -13q39 0 66 23.5t27 62.5q0 85 -108 85q50 24 74 50.5t24 62.5q0 29 -20.5 48t-56.5 19q-13 0 -21.5 -4t-18.5 -12l-69 -56v81q33 8 65.5 12t63.5 4
q71 0 108 -24t37 -64q0 -32 -27 -59t-79 -44z" />
    <glyph glyph-name="acute" unicode="&#xb4;" 
d="M422 678l-222 -150h-45l124 150h143z" />
    <glyph glyph-name="mu" unicode="&#xb5;" horiz-adv-x="590" 
d="M212 528l-61 -310q-6 -28 -6 -51q0 -96 89 -96q63 0 96.5 45t52.5 141l53 271h110l-71 -361q-9 -46 -9 -65q0 -17 7.5 -24.5t25.5 -7.5h8t9 1l-16 -78q-17 -5 -35 -6.5t-38 -1.5q-73 0 -73 61v7q-20 -33 -53 -51t-71 -18t-66 12t-49 41l-48 -247h-112l145 738h112z" />
    <glyph glyph-name="paragraph" unicode="&#xb6;" 
d="M473 674h-57v-674h-63v674h-83v-674h-63v383q-85 3 -132.5 50t-47.5 119q0 38 13.5 69t38 53.5t60 35t79.5 12.5h255v-48z" />
    <glyph glyph-name="periodcentered" unicode="&#xb7;" horiz-adv-x="253" 
d="M127 397q30 0 51.5 -22t21.5 -52t-21 -51.5t-52 -21.5q-29 0 -50.5 21.5t-21.5 51.5t21.5 52t50.5 22z" />
    <glyph glyph-name="cedilla" unicode="&#xb8;" 
d="M255 0v-32q78 -17 78 -80q0 -19 -9.5 -36t-26.5 -30t-39.5 -21t-49.5 -8q-12 0 -29 5q64 35 64 93q0 32 -31 45v64h43z" />
    <glyph glyph-name="onesuperior" unicode="&#xb9;" horiz-adv-x="338" 
d="M225 338q0 -15 3 -34t21 -45h-130q18 29 21.5 49.5t3.5 38.5v6v221h-100q41 15 86 37t95 51v-324z" />
    <glyph glyph-name="ordmasculine" unicode="&#xba;" horiz-adv-x="404" 
d="M23 490q0 76 49.5 122.5t134.5 46.5q81 0 127.5 -45t46.5 -123t-49.5 -125t-134.5 -47q-80 0 -127 46t-47 125zM201 633q-35 0 -57 -36t-22 -105q0 -72 22.5 -109t58.5 -37t58 36t22 108q0 70 -22 106.5t-60 36.5z" />
    <glyph glyph-name="guillemotright" unicode="&#xbb;" horiz-adv-x="366" 
d="M91 421l106 -173l-106 -188h-58l88 188l-87 173h57zM222 421l106 -173l-106 -188h-57l88 188l-88 173h57z" />
    <glyph glyph-name="onequarter" unicode="&#xbc;" horiz-adv-x="812" 
d="M215 359q0 -14 3 -32t20 -42h-124q17 26 20.5 45.5t3.5 36.5v6v206h-96q77 27 173 82v-302zM666 544l-497 -465l-25 26l495 463zM738 141h61v-49h-61v-23q0 -20 5 -37t18 -32h-115q24 33 24 72v20h-180q48 78 94 142t89 120l65 20v-233zM555 141h115v165z" />
    <glyph glyph-name="onehalf" unicode="&#xbd;" horiz-adv-x="812" 
d="M215 359q0 -14 3 -32t20 -42h-124q17 26 20.5 45.5t3.5 36.5v6v206h-96q77 27 173 82v-302zM666 544l-497 -465l-25 26l495 463zM715 58q32 0 78 37l-15 -95h-291q61 59 99.5 99.5t55.5 60.5q21 26 35 49.5t14 56.5q0 39 -16.5 60t-45.5 21q-11 0 -19.5 -3.5t-19.5 -11.5
l-68 -54v80q73 14 118 14q68 0 104 -25t36 -72q0 -27 -13 -51t-37.5 -49.5t-60.5 -53.5t-82 -63h128z" />
    <glyph glyph-name="threequarters" unicode="&#xbe;" horiz-adv-x="812" 
d="M185 478q57 -6 86 -30t29 -61q0 -52 -43 -81t-128 -29q-53 0 -109 12v83l68 -55q15 -12 35 -12q38 0 63.5 21.5t25.5 58.5q0 79 -104 79q48 23 71 47.5t23 58.5q0 27 -19 44.5t-54 17.5q-21 0 -38 -14l-66 -53v76q65 14 123 14q68 0 103 -22t35 -60q0 -30 -25.5 -55
t-75.5 -40zM667 544l-497 -465l-25 26l495 463zM739 141h61v-49h-61v-23q0 -20 5 -37t18 -32h-115q24 33 24 72v20h-180q48 78 94 142t89 120l65 20v-233zM556 141h115v165z" />
    <glyph glyph-name="questiondown" unicode="&#xbf;" horiz-adv-x="421" 
d="M257 663q29 0 46 -14.5t17 -38.5q0 -27 -18 -42.5t-50 -15.5q-30 0 -47 15.5t-17 42.5q0 25 17.5 39t51.5 14zM282 501q1 -5 1 -10v-10q0 -29 -7 -52.5t-21 -47.5q-18 -33 -36 -62t-32 -56.5t-22.5 -54.5t-8.5 -56q0 -57 28.5 -87t67.5 -30q25 0 50 20l117 100v-138
q-45 -14 -93 -20t-100 -6q-49 0 -88.5 12t-67 33t-42.5 50t-15 63q0 58 50 125q38 49 75.5 82.5t61.5 61.5q15 17 22 32.5t7 36.5q0 3 -0.5 6.5t-0.5 7.5h54z" />
    <glyph glyph-name="Agrave" unicode="&#xc0;" horiz-adv-x="572" 
d="M525 116q12 -35 29.5 -63.5t43.5 -52.5h-221q16 19 24 33t8 26q0 8 -3 20t-8 27l-46 148h-184l-50 -143q-6 -17 -10 -30t-4 -24q0 -23 28 -57h-158q36 37 52 72t28 65l199 505l83 25zM182 302h155l-74 235zM388 719h-45l-222 150h143z" />
    <glyph glyph-name="Aacute" unicode="&#xc1;" horiz-adv-x="572" 
d="M525 116q12 -35 29.5 -63.5t43.5 -52.5h-221q16 19 24 33t8 26q0 8 -3 20t-8 27l-46 148h-184l-50 -143q-6 -17 -10 -30t-4 -24q0 -23 28 -57h-158q36 37 52 72t28 65l199 505l83 25zM182 302h155l-74 235zM465 869l-222 -150h-45l124 150h143z" />
    <glyph glyph-name="Acircumflex" unicode="&#xc2;" horiz-adv-x="572" 
d="M525 116q12 -35 29.5 -63.5t43.5 -52.5h-221q16 19 24 33t8 26q0 8 -3 20t-8 27l-46 148h-184l-50 -143q-6 -17 -10 -30t-4 -24q0 -23 28 -57h-158q36 37 52 72t28 65l199 505l83 25zM182 302h155l-74 235zM461 719h-45l-123 54l-123 -54h-45l168 165z" />
    <glyph glyph-name="Atilde" unicode="&#xc3;" horiz-adv-x="572" 
d="M525 116q12 -35 29.5 -63.5t43.5 -52.5h-221q16 19 24 33t8 26q0 8 -3 20t-8 27l-46 148h-184l-50 -143q-6 -17 -10 -30t-4 -24q0 -23 28 -57h-158q36 37 52 72t28 65l199 505l83 25zM182 302h155l-74 235zM359 810q8 -3 15 -5t14 -2q10 0 27.5 10t40.5 31
q-10 -51 -36 -77.5t-58 -26.5q-13 0 -23.5 3.5t-20.5 6.5l-92 30q-11 4 -18 5t-9 1q-12 0 -28.5 -11.5t-40.5 -34.5q22 105 105 105q21 0 36 -5z" />
    <glyph glyph-name="Adieresis" unicode="&#xc4;" horiz-adv-x="572" 
d="M525 116q12 -35 29.5 -63.5t43.5 -52.5h-221q16 19 24 33t8 26q0 8 -3 20t-8 27l-46 148h-184l-50 -143q-6 -17 -10 -30t-4 -24q0 -23 28 -57h-158q36 37 52 72t28 65l199 505l83 25zM182 302h155l-74 235zM140 790q0 27 15.5 42.5t42.5 15.5q54 0 54 -58q0 -25 -15 -39
t-43 -14q-54 0 -54 53zM336 790q0 27 15.5 42.5t42.5 15.5q54 0 54 -58q0 -25 -15 -39t-43 -14q-54 0 -54 53z" />
    <glyph glyph-name="Aring" unicode="&#xc5;" horiz-adv-x="572" 
d="M281 946q26 0 48 -9.5t39 -26t26.5 -39t9.5 -47.5t-9.5 -47.5t-26 -39t-39 -26t-48.5 -9.5t-48 9.5t-38.5 26t-25.5 38.5t-9 48t9.5 48t25.5 38.5t38.5 26t47.5 9.5zM281 887q-27 0 -45.5 -19t-18.5 -46t18.5 -45t45.5 -18q26 0 45 18.5t19 44.5q0 27 -19 46t-45 19z
M525 116q12 -35 29.5 -63.5t43.5 -52.5h-221q16 19 24 33t8 26q0 8 -3 20t-8 27l-46 148h-184l-50 -143q-6 -17 -10 -30t-4 -24q0 -23 28 -57h-158q36 37 52 72t28 65l199 505l83 25zM182 302h155l-74 235z" />
    <glyph glyph-name="AE" unicode="&#xc6;" horiz-adv-x="796" 
d="M744 655v-143l-99 79q-17 13 -33 15.5t-37 2.5h-9h-81v-262h73q29 0 43 6.5t27 16.5l71 52v-196l-83 59q-17 11 -32 13t-32 2h-67v-254h99q35 0 63 21l115 87l-21 -154h-417q27 47 31.5 81t4.5 63v154h-146l-110 -223q-6 -10 -6 -26q0 -11 7 -22t18 -27h-157q38 35 57 65
t30 51l291 539h400zM237 347h123v247z" />
    <glyph glyph-name="Ccedilla" unicode="&#xc7;" horiz-adv-x="546" 
d="M522 506l-125 97q-12 10 -23 12.5t-26 2.5q-81 0 -131.5 -76.5t-50.5 -219.5q0 -69 13 -123t36.5 -90.5t56 -55.5t71.5 -19q25 0 38.5 7t24.5 16l126 94l-19 -145q-109 -21 -170 -21q-155 0 -235 83t-80 242q0 83 23 148.5t66.5 112t106.5 71t143 24.5q73 0 155 -21v-139
zM310 0v-32q78 -17 78 -80q0 -19 -9.5 -36t-26.5 -30t-39.5 -21t-49.5 -8q-12 0 -29 5q64 35 64 93q0 32 -31 45v64h43z" />
    <glyph glyph-name="Egrave" unicode="&#xc8;" horiz-adv-x="516" 
d="M461 655v-143l-99 79q-17 13 -33 15.5t-37 2.5h-9h-82v-250h73q29 0 43 6.5t27 16.5l72 52v-196l-84 59q-17 11 -32 13t-32 2h-67v-266h99q35 0 63 21l115 87l-21 -154h-417q27 47 31.5 81t4.5 63v367q0 29 -4.5 63t-31.5 81h421zM353 719h-45l-222 150h143z" />
    <glyph glyph-name="Eacute" unicode="&#xc9;" horiz-adv-x="516" 
d="M461 655v-143l-99 79q-17 13 -33 15.5t-37 2.5h-9h-82v-250h73q29 0 43 6.5t27 16.5l72 52v-196l-84 59q-17 11 -32 13t-32 2h-67v-266h99q35 0 63 21l115 87l-21 -154h-417q27 47 31.5 81t4.5 63v367q0 29 -4.5 63t-31.5 81h421zM430 869l-222 -150h-45l124 150h143z
" />
    <glyph glyph-name="Ecircumflex" unicode="&#xca;" horiz-adv-x="516" 
d="M461 655v-143l-99 79q-17 13 -33 15.5t-37 2.5h-9h-82v-250h73q29 0 43 6.5t27 16.5l72 52v-196l-84 59q-17 11 -32 13t-32 2h-67v-266h99q35 0 63 21l115 87l-21 -154h-417q27 47 31.5 81t4.5 63v367q0 29 -4.5 63t-31.5 81h421zM426 719h-45l-123 54l-123 -54h-45
l168 165z" />
    <glyph glyph-name="Edieresis" unicode="&#xcb;" horiz-adv-x="516" 
d="M461 655v-143l-99 79q-17 13 -33 15.5t-37 2.5h-9h-82v-250h73q29 0 43 6.5t27 16.5l72 52v-196l-84 59q-17 11 -32 13t-32 2h-67v-266h99q35 0 63 21l115 87l-21 -154h-417q27 47 31.5 81t4.5 63v367q0 29 -4.5 63t-31.5 81h421zM105 790q0 27 15.5 42.5t42.5 15.5
q54 0 54 -58q0 -25 -15 -39t-43 -14q-54 0 -54 53zM301 790q0 27 15.5 42.5t42.5 15.5q54 0 54 -58q0 -25 -15 -39t-43 -14q-54 0 -54 53z" />
    <glyph glyph-name="Igrave" unicode="&#xcc;" horiz-adv-x="273" 
d="M236 655q-28 -47 -32.5 -81t-4.5 -63v-367q0 -29 4.5 -63t32.5 -81h-199q27 47 32 81t5 63v367q0 29 -5 63t-32 81h199zM232 719h-45l-222 150h143z" />
    <glyph glyph-name="Iacute" unicode="&#xcd;" horiz-adv-x="273" 
d="M236 655q-28 -47 -32.5 -81t-4.5 -63v-367q0 -29 4.5 -63t32.5 -81h-199q27 47 32 81t5 63v367q0 29 -5 63t-32 81h199zM309 869l-222 -150h-45l124 150h143z" />
    <glyph glyph-name="Icircumflex" unicode="&#xce;" horiz-adv-x="273" 
d="M236 655q-28 -47 -32.5 -81t-4.5 -63v-367q0 -29 4.5 -63t32.5 -81h-199q27 47 32 81t5 63v367q0 29 -5 63t-32 81h199zM305 719h-45l-123 54l-123 -54h-45l168 165z" />
    <glyph glyph-name="Idieresis" unicode="&#xcf;" horiz-adv-x="273" 
d="M236 655q-28 -47 -32.5 -81t-4.5 -63v-367q0 -29 4.5 -63t32.5 -81h-199q27 47 32 81t5 63v367q0 29 -5 63t-32 81h199zM-16 790q0 27 15.5 42.5t42.5 15.5q54 0 54 -58q0 -25 -15 -39t-43 -14q-54 0 -54 53zM180 790q0 27 15.5 42.5t42.5 15.5q54 0 54 -58
q0 -25 -15 -39t-43 -14q-54 0 -54 53z" />
    <glyph glyph-name="Eth" unicode="&#xd0;" horiz-adv-x="660" 
d="M293 655q163 0 246 -81t83 -236q0 -63 -14.5 -113.5t-46.5 -97.5q-27 -39 -57 -63.5t-66 -39t-79 -19.5t-96 -5h-228q27 47 32 81t5 63v178h-67v53h67v136q0 29 -5 63t-32 81h258zM197 375h122v-53h-122v-276h97q91 0 139.5 71t48.5 208q0 149 -48.5 216.5t-155.5 67.5
h-81v-234z" />
    <glyph glyph-name="Ntilde" unicode="&#xd1;" horiz-adv-x="641" 
d="M186 655l318 -454v310q0 29 -4.5 63t-31.5 81h138q-26 -45 -31 -77.5t-5 -60.5v-6v-516h-75l-354 501v-352q0 -29 4.5 -63t32.5 -81h-138q27 47 31.5 81t4.5 63v367q0 29 -4.5 63t-31.5 81h146zM387 810q8 -3 15 -5t14 -2q10 0 27.5 10t40.5 31q-10 -51 -36 -77.5
t-58 -26.5q-13 0 -23.5 3.5t-20.5 6.5l-92 30q-11 4 -18 5t-9 1q-12 0 -28.5 -11.5t-40.5 -34.5q22 105 105 105q21 0 36 -5z" />
    <glyph glyph-name="Ograve" unicode="&#xd2;" horiz-adv-x="671" 
d="M32 314q0 83 21.5 148t62 110t98 68.5t128.5 23.5q68 0 122.5 -22.5t93.5 -65t60 -103.5t21 -138q0 -82 -22 -147t-62.5 -110t-98 -69t-128.5 -24q-67 0 -121.5 22.5t-93.5 65t-60 103.5t-21 138zM332 616q-160 0 -160 -291t160 -291q86 0 127 72t41 219q0 148 -41 219.5
t-127 71.5zM431 719h-45l-222 150h143z" />
    <glyph glyph-name="Oacute" unicode="&#xd3;" horiz-adv-x="671" 
d="M32 314q0 83 21.5 148t62 110t98 68.5t128.5 23.5q68 0 122.5 -22.5t93.5 -65t60 -103.5t21 -138q0 -82 -22 -147t-62.5 -110t-98 -69t-128.5 -24q-67 0 -121.5 22.5t-93.5 65t-60 103.5t-21 138zM332 616q-160 0 -160 -291t160 -291q86 0 127 72t41 219q0 148 -41 219.5
t-127 71.5zM508 869l-222 -150h-45l124 150h143z" />
    <glyph glyph-name="Ocircumflex" unicode="&#xd4;" horiz-adv-x="671" 
d="M32 314q0 83 21.5 148t62 110t98 68.5t128.5 23.5q68 0 122.5 -22.5t93.5 -65t60 -103.5t21 -138q0 -82 -22 -147t-62.5 -110t-98 -69t-128.5 -24q-67 0 -121.5 22.5t-93.5 65t-60 103.5t-21 138zM332 616q-160 0 -160 -291t160 -291q86 0 127 72t41 219q0 148 -41 219.5
t-127 71.5zM504 719h-45l-123 54l-123 -54h-45l168 165z" />
    <glyph glyph-name="Otilde" unicode="&#xd5;" horiz-adv-x="671" 
d="M32 314q0 83 21.5 148t62 110t98 68.5t128.5 23.5q68 0 122.5 -22.5t93.5 -65t60 -103.5t21 -138q0 -82 -22 -147t-62.5 -110t-98 -69t-128.5 -24q-67 0 -121.5 22.5t-93.5 65t-60 103.5t-21 138zM332 616q-160 0 -160 -291t160 -291q86 0 127 72t41 219q0 148 -41 219.5
t-127 71.5zM402 810q8 -3 15 -5t14 -2q10 0 27.5 10t40.5 31q-10 -51 -36 -77.5t-58 -26.5q-13 0 -23.5 3.5t-20.5 6.5l-92 30q-11 4 -18 5t-9 1q-12 0 -28.5 -11.5t-40.5 -34.5q22 105 105 105q21 0 36 -5z" />
    <glyph glyph-name="Odieresis" unicode="&#xd6;" horiz-adv-x="671" 
d="M32 314q0 83 21.5 148t62 110t98 68.5t128.5 23.5q68 0 122.5 -22.5t93.5 -65t60 -103.5t21 -138q0 -82 -22 -147t-62.5 -110t-98 -69t-128.5 -24q-67 0 -121.5 22.5t-93.5 65t-60 103.5t-21 138zM332 616q-160 0 -160 -291t160 -291q86 0 127 72t41 219q0 148 -41 219.5
t-127 71.5zM183 790q0 27 15.5 42.5t42.5 15.5q54 0 54 -58q0 -25 -15 -39t-43 -14q-54 0 -54 53zM379 790q0 27 15.5 42.5t42.5 15.5q54 0 54 -58q0 -25 -15 -39t-43 -14q-54 0 -54 53z" />
    <glyph glyph-name="multiply" unicode="&#xd7;" horiz-adv-x="833" 
d="M421 356l225 224l57 -57l-224 -225l224 -224l-57 -58l-225 225l-224 -225l-57 58l224 224l-224 225l57 57z" />
    <glyph glyph-name="Oslash" unicode="&#xd8;" horiz-adv-x="671" 
d="M572 669l-42 -68q109 -87 109 -266q0 -83 -22 -148t-63 -110t-98.5 -69t-129.5 -24q-82 0 -150 40l-48 -77l-43 31l46 76q-52 46 -75.5 111t-23.5 153q0 81 22 145.5t62.5 109t99 68t130.5 23.5q76 0 140 -34l43 71zM445 564q-22 28 -49 40t-64 12q-160 0 -160 -291
q0 -48 4 -90t17 -80zM217 92q26 -29 54 -43.5t61 -14.5q87 0 127.5 72t40.5 219q0 59 -6.5 106t-18.5 82z" />
    <glyph glyph-name="Ugrave" unicode="&#xd9;" horiz-adv-x="632" 
d="M225 655q-26 -45 -30 -78.5t-4 -62.5v-297q0 -92 30.5 -136.5t109.5 -44.5q105 0 138 70q11 22 13 47.5t2 55.5v41v264q0 30 -5 63.5t-30 77.5h154q-29 -47 -34 -81t-5 -63v-280v-14q0 -39 -3 -73t-19 -64q-24 -46 -82.5 -71t-147.5 -25q-130 0 -187.5 49t-57.5 156v322
q0 29 -5 63t-34 81h197zM425 719h-45l-222 150h143z" />
    <glyph glyph-name="Uacute" unicode="&#xda;" horiz-adv-x="632" 
d="M225 655q-26 -45 -30 -78.5t-4 -62.5v-297q0 -92 30.5 -136.5t109.5 -44.5q105 0 138 70q11 22 13 47.5t2 55.5v41v264q0 30 -5 63.5t-30 77.5h154q-29 -47 -34 -81t-5 -63v-280v-14q0 -39 -3 -73t-19 -64q-24 -46 -82.5 -71t-147.5 -25q-130 0 -187.5 49t-57.5 156v322
q0 29 -5 63t-34 81h197zM502 869l-222 -150h-45l124 150h143z" />
    <glyph glyph-name="Ucircumflex" unicode="&#xdb;" horiz-adv-x="632" 
d="M225 655q-26 -45 -30 -78.5t-4 -62.5v-297q0 -92 30.5 -136.5t109.5 -44.5q105 0 138 70q11 22 13 47.5t2 55.5v41v264q0 30 -5 63.5t-30 77.5h154q-29 -47 -34 -81t-5 -63v-280v-14q0 -39 -3 -73t-19 -64q-24 -46 -82.5 -71t-147.5 -25q-130 0 -187.5 49t-57.5 156v322
q0 29 -5 63t-34 81h197zM498 719h-45l-123 54l-123 -54h-45l168 165z" />
    <glyph glyph-name="Udieresis" unicode="&#xdc;" horiz-adv-x="632" 
d="M225 655q-26 -45 -30 -78.5t-4 -62.5v-297q0 -92 30.5 -136.5t109.5 -44.5q105 0 138 70q11 22 13 47.5t2 55.5v41v264q0 30 -5 63.5t-30 77.5h154q-29 -47 -34 -81t-5 -63v-280v-14q0 -39 -3 -73t-19 -64q-24 -46 -82.5 -71t-147.5 -25q-130 0 -187.5 49t-57.5 156v322
q0 29 -5 63t-34 81h197zM177 790q0 27 15.5 42.5t42.5 15.5q54 0 54 -58q0 -25 -15 -39t-43 -14q-54 0 -54 53zM373 790q0 27 15.5 42.5t42.5 15.5q54 0 54 -58q0 -25 -15 -39t-43 -14q-54 0 -54 53z" />
    <glyph glyph-name="Yacute" unicode="&#xdd;" horiz-adv-x="521" 
d="M185 655q-22 -32 -22 -47q0 -13 16 -41l122 -212l110 221l7.5 15t3.5 18q0 15 -22 46h162q-19 -17 -45.5 -47t-54.5 -76l-134 -224v-164v-6q0 -28 5 -60.5t31 -77.5h-198q27 47 32 81t5 63v145l-155 263q-34 57 -87 103h224zM433 869l-222 -150h-45l124 150h143z" />
    <glyph glyph-name="Thorn" unicode="&#xde;" horiz-adv-x="495" 
d="M234 655q-36 -64 -36 -118v-9h83q102 0 156 -50.5t54 -141.5q0 -43 -15.5 -79.5t-45 -63t-72.5 -41t-98 -14.5q-13 0 -28 0.5t-34 1.5q0 -5 -0.5 -9t-0.5 -9q0 -57 37 -122h-197q27 47 32 81t5 63v367q0 29 -5 63t-32 81h197zM197 184h14q76 0 106.5 35t30.5 119
q0 145 -111 145h-40v-299z" />
    <glyph glyph-name="germandbls" unicode="&#xdf;" horiz-adv-x="583" 
d="M229 132l98 -76q11 -9 22 -14t25 -5q29 0 47.5 19t18.5 45q0 18 -8 30.5t-23 23t-37.5 22.5t-51.5 28q-44 25 -66 49.5t-22 66.5q0 32 15.5 58.5t43.5 56.5q16 18 31 33.5t26.5 31t18.5 33t7 39.5q0 42 -23.5 66t-65.5 24q-54 0 -77 -37t-23 -112v-514h-155
q29 42 34 82.5t5 87.5v295q0 28 1 52t6 45.5t15.5 41.5t29.5 39q63 65 182 65q84 0 133.5 -34.5t49.5 -91.5q0 -30 -15.5 -54.5t-46.5 -49.5q-17 -14 -32.5 -25.5t-27 -23t-18.5 -25.5t-7 -32t8 -30t21.5 -22t32 -19t39.5 -21q27 -16 48 -29.5t35.5 -29t22 -36.5t7.5 -52
q0 -66 -44 -103t-124 -37q-73 0 -156 26v113z" />
    <glyph glyph-name="agrave" unicode="&#xe0;" horiz-adv-x="477" 
d="M412 150q0 -32 5.5 -63t30.5 -68l-128 -27q-17 25 -23 62q-42 -32 -76 -47t-58 -15q-27 0 -50.5 10t-40.5 28t-26.5 42.5t-9.5 53.5q0 70 51 102.5t157 32.5q13 0 26 -0.5t27 -1.5v73q0 47 -15 69t-57 22q-31 0 -63.5 -28.5t-84.5 -78.5v127q46 14 89.5 20t85.5 6
q53 0 88.5 -10.5t55.5 -35.5q11 -14 13.5 -33.5t2.5 -44.5v-12v-183zM297 229q-75 -6 -110.5 -26t-35.5 -65q0 -38 23.5 -58.5t66.5 -20.5q15 0 28.5 1t27.5 4v165zM334 528h-45l-222 150h143z" />
    <glyph glyph-name="aacute" unicode="&#xe1;" horiz-adv-x="477" 
d="M412 150q0 -32 5.5 -63t30.5 -68l-128 -27q-17 25 -23 62q-42 -32 -76 -47t-58 -15q-27 0 -50.5 10t-40.5 28t-26.5 42.5t-9.5 53.5q0 70 51 102.5t157 32.5q13 0 26 -0.5t27 -1.5v73q0 47 -15 69t-57 22q-31 0 -63.5 -28.5t-84.5 -78.5v127q46 14 89.5 20t85.5 6
q53 0 88.5 -10.5t55.5 -35.5q11 -14 13.5 -33.5t2.5 -44.5v-12v-183zM297 229q-75 -6 -110.5 -26t-35.5 -65q0 -38 23.5 -58.5t66.5 -20.5q15 0 28.5 1t27.5 4v165zM411 678l-222 -150h-45l124 150h143z" />
    <glyph glyph-name="acircumflex" unicode="&#xe2;" horiz-adv-x="477" 
d="M412 150q0 -32 5.5 -63t30.5 -68l-128 -27q-17 25 -23 62q-42 -32 -76 -47t-58 -15q-27 0 -50.5 10t-40.5 28t-26.5 42.5t-9.5 53.5q0 70 51 102.5t157 32.5q13 0 26 -0.5t27 -1.5v73q0 47 -15 69t-57 22q-31 0 -63.5 -28.5t-84.5 -78.5v127q46 14 89.5 20t85.5 6
q53 0 88.5 -10.5t55.5 -35.5q11 -14 13.5 -33.5t2.5 -44.5v-12v-183zM297 229q-75 -6 -110.5 -26t-35.5 -65q0 -38 23.5 -58.5t66.5 -20.5q15 0 28.5 1t27.5 4v165zM407 528h-45l-123 54l-123 -54h-45l168 165z" />
    <glyph glyph-name="atilde" unicode="&#xe3;" horiz-adv-x="477" 
d="M412 150q0 -32 5.5 -63t30.5 -68l-128 -27q-17 25 -23 62q-42 -32 -76 -47t-58 -15q-27 0 -50.5 10t-40.5 28t-26.5 42.5t-9.5 53.5q0 70 51 102.5t157 32.5q13 0 26 -0.5t27 -1.5v73q0 47 -15 69t-57 22q-31 0 -63.5 -28.5t-84.5 -78.5v127q46 14 89.5 20t85.5 6
q53 0 88.5 -10.5t55.5 -35.5q11 -14 13.5 -33.5t2.5 -44.5v-12v-183zM297 229q-75 -6 -110.5 -26t-35.5 -65q0 -38 23.5 -58.5t66.5 -20.5q15 0 28.5 1t27.5 4v165zM305 619q8 -3 15 -5t14 -2q10 0 27.5 10t40.5 31q-10 -51 -36 -77.5t-58 -26.5q-13 0 -23.5 3.5t-20.5 6.5
l-92 30q-11 4 -18 5t-9 1q-12 0 -28.5 -11.5t-40.5 -34.5q22 105 105 105q21 0 36 -5z" />
    <glyph glyph-name="adieresis" unicode="&#xe4;" horiz-adv-x="477" 
d="M412 150q0 -32 5.5 -63t30.5 -68l-128 -27q-17 25 -23 62q-42 -32 -76 -47t-58 -15q-27 0 -50.5 10t-40.5 28t-26.5 42.5t-9.5 53.5q0 70 51 102.5t157 32.5q13 0 26 -0.5t27 -1.5v73q0 47 -15 69t-57 22q-31 0 -63.5 -28.5t-84.5 -78.5v127q46 14 89.5 20t85.5 6
q53 0 88.5 -10.5t55.5 -35.5q11 -14 13.5 -33.5t2.5 -44.5v-12v-183zM297 229q-75 -6 -110.5 -26t-35.5 -65q0 -38 23.5 -58.5t66.5 -20.5q15 0 28.5 1t27.5 4v165zM86 599q0 27 15.5 42.5t42.5 15.5q54 0 54 -58q0 -25 -15 -39t-43 -14q-54 0 -54 53zM282 599
q0 27 15.5 42.5t42.5 15.5q54 0 54 -58q0 -25 -15 -39t-43 -14q-54 0 -54 53z" />
    <glyph glyph-name="aring" unicode="&#xe5;" horiz-adv-x="477" 
d="M234 746q25 0 46.5 -9.5t37.5 -25.5t25.5 -37.5t9.5 -45.5q0 -25 -9 -46.5t-25 -37.5t-38 -25.5t-47 -9.5t-46.5 9t-37.5 25t-25 38t-9 47t9 46.5t25 37.5t37.5 25t46.5 9zM235 689q-26 0 -44 -17.5t-18 -43.5t18 -44t44 -18t43.5 18t17.5 44t-17.5 43.5t-43.5 17.5z
M410 150q0 -32 5.5 -63t30.5 -68l-128 -27q-17 25 -23 62q-42 -32 -76.5 -47t-58.5 -15q-27 0 -50.5 10t-40 28t-26 42.5t-9.5 53.5q0 70 51 102.5t157 32.5q13 0 26 -0.5t27 -1.5v73q0 46 -14.5 68.5t-52.5 22.5q-16 0 -31.5 -8t-33.5 -22t-39.5 -33.5t-48.5 -43.5v127
q46 14 89.5 20t85.5 6q53 0 88 -10.5t55 -35.5q13 -16 15 -38.5t2 -51.5v-183zM295 229q-75 -6 -110.5 -26t-35.5 -65q0 -38 23 -58.5t66 -20.5q15 0 29 1t28 4v165z" />
    <glyph glyph-name="ae" unicode="&#xe6;" horiz-adv-x="722" 
d="M69 443q46 14 89.5 20t85.5 6q46 0 79.5 -8t56.5 -28q56 36 119 36q94 0 145 -55t51 -160v-3h-294v-9q0 -187 178 -187q43 0 119 12q-86 -80 -194 -80q-103 0 -164 64q-45 -29 -86 -44t-85 -15q-67 0 -104 36.5t-37 97.5q0 70 51 102.5t157 32.5q13 0 26 -0.5t27 -1.5v73
q0 47 -15 69t-57 22q-19 0 -35.5 -9t-34.5 -26l-78 -72v127zM289 229q-75 -6 -110.5 -26t-35.5 -65q0 -38 23.5 -58.5t66.5 -20.5q15 0 28.5 1t27.5 4v165zM567 293q0 67 -20 101.5t-55 34.5q-87 0 -90 -160z" />
    <glyph glyph-name="ccedilla" unicode="&#xe7;" horiz-adv-x="433" 
d="M400 322l-104 82q-12 10 -22.5 15t-22.5 5q-20 0 -37.5 -13.5t-31 -37.5t-21.5 -57.5t-8 -74.5q0 -184 189 -184q23 0 44 2t41 7q-78 -78 -182 -78q-46 0 -85.5 16.5t-68 47t-44.5 73.5t-16 95q0 57 18 103.5t51 79t80 50.5t105 18q30 0 59 -5t56 -14v-130zM234 0v-32
q78 -17 78 -80q0 -19 -9.5 -36t-26.5 -30t-39.5 -21t-49.5 -8q-12 0 -29 5q64 35 64 93q0 32 -31 45v64h43z" />
    <glyph glyph-name="egrave" unicode="&#xe8;" horiz-adv-x="472" 
d="M318 293q0 67 -20.5 101.5t-55.5 34.5q-87 0 -90 -160zM152 251v-8q0 -92 48 -139.5t141 -47.5q22 0 49 3t59 8q-86 -80 -195 -80q-51 0 -93 16.5t-71 47.5t-45 74t-16 97t17 99.5t47 78.5t72.5 51t93.5 18q85 0 136 -55.5t51 -157.5v-5h-294zM344 528h-45l-222 150h143z
" />
    <glyph glyph-name="eacute" unicode="&#xe9;" horiz-adv-x="472" 
d="M318 293q0 67 -20.5 101.5t-55.5 34.5q-87 0 -90 -160zM152 251v-8q0 -92 48 -139.5t141 -47.5q22 0 49 3t59 8q-86 -80 -195 -80q-51 0 -93 16.5t-71 47.5t-45 74t-16 97t17 99.5t47 78.5t72.5 51t93.5 18q85 0 136 -55.5t51 -157.5v-5h-294zM421 678l-222 -150h-45
l124 150h143z" />
    <glyph glyph-name="ecircumflex" unicode="&#xea;" horiz-adv-x="472" 
d="M318 293q0 67 -20.5 101.5t-55.5 34.5q-87 0 -90 -160zM152 251v-8q0 -92 48 -139.5t141 -47.5q22 0 49 3t59 8q-86 -80 -195 -80q-51 0 -93 16.5t-71 47.5t-45 74t-16 97t17 99.5t47 78.5t72.5 51t93.5 18q85 0 136 -55.5t51 -157.5v-5h-294zM417 528h-45l-123 54
l-123 -54h-45l168 165z" />
    <glyph glyph-name="edieresis" unicode="&#xeb;" horiz-adv-x="472" 
d="M318 293q0 67 -20.5 101.5t-55.5 34.5q-87 0 -90 -160zM152 251v-8q0 -92 48 -139.5t141 -47.5q22 0 49 3t59 8q-86 -80 -195 -80q-51 0 -93 16.5t-71 47.5t-45 74t-16 97t17 99.5t47 78.5t72.5 51t93.5 18q85 0 136 -55.5t51 -157.5v-5h-294zM96 599q0 27 15.5 42.5
t42.5 15.5q54 0 54 -58q0 -25 -15 -39t-43 -14q-54 0 -54 53zM292 599q0 27 15.5 42.5t42.5 15.5q54 0 54 -58q0 -25 -15 -39t-43 -14q-54 0 -54 53z" />
    <glyph glyph-name="igrave" unicode="&#xec;" horiz-adv-x="272" 
d="M200 144q0 -29 4.5 -63t32.5 -81h-194q27 47 32 81t5 63v152q0 37 -8.5 70t-28.5 68l157 39v-329zM231 528h-45l-222 150h143z" />
    <glyph glyph-name="iacute" unicode="&#xed;" horiz-adv-x="272" 
d="M200 144q0 -29 4.5 -63t32.5 -81h-194q27 47 32 81t5 63v152q0 37 -8.5 70t-28.5 68l157 39v-329zM308 678l-222 -150h-45l124 150h143z" />
    <glyph glyph-name="icircumflex" unicode="&#xee;" horiz-adv-x="272" 
d="M200 144q0 -29 4.5 -63t32.5 -81h-194q27 47 32 81t5 63v152q0 37 -8.5 70t-28.5 68l157 39v-329zM304 528h-45l-123 54l-123 -54h-45l168 165z" />
    <glyph glyph-name="idieresis" unicode="&#xef;" horiz-adv-x="272" 
d="M200 144q0 -29 4.5 -63t32.5 -81h-194q27 47 32 81t5 63v152q0 37 -8.5 70t-28.5 68l157 39v-329zM-17 599q0 27 15.5 42.5t42.5 15.5q54 0 54 -58q0 -25 -15 -39t-43 -14q-54 0 -54 53zM179 599q0 27 15.5 42.5t42.5 15.5q54 0 54 -58q0 -25 -15 -39t-43 -14
q-54 0 -54 53z" />
    <glyph glyph-name="eth" unicode="&#xf0;" horiz-adv-x="539" 
d="M372 419q-11 47 -33 86t-53 76l-135 -70l-18 39l123 63q-20 18 -41.5 36.5t-45.5 36.5l129 31q14 -14 27.5 -28t26.5 -28l123 62l20 -37l-116 -59q129 -157 129 -356q0 -139 -63 -212.5t-179 -73.5q-52 0 -95.5 17.5t-74 49t-47.5 77t-17 100.5q0 51 16.5 93t46 72t70 47
t87.5 17q32 0 61.5 -9.5t58.5 -29.5zM375 399q-26 10 -48.5 15.5t-42.5 5.5q-56 0 -89 -48t-33 -138q0 -103 31 -157.5t80 -54.5q54 0 83 62t29 187q0 29 -2.5 61t-7.5 67z" />
    <glyph glyph-name="ntilde" unicode="&#xf1;" horiz-adv-x="544" 
d="M192 405q56 31 97 47.5t72 16.5q59 0 86.5 -42t27.5 -127v-156v-6q0 -28 5 -60.5t31 -77.5h-193q27 47 31.5 81t4.5 63v113q0 39 -4 66t-16 44.5t-34.5 25t-59.5 7.5q-21 0 -48 -5v-251q0 -29 4.5 -63t32.5 -81h-194q27 47 32 81t5 63v152q0 37 -8.5 70t-28.5 68l157 39
v-68zM338 619q8 -3 15 -5t14 -2q10 0 27.5 10t40.5 31q-10 -51 -36 -77.5t-58 -26.5q-13 0 -23.5 3.5t-20.5 6.5l-92 30q-11 4 -18 5t-9 1q-12 0 -28.5 -11.5t-40.5 -34.5q22 105 105 105q21 0 36 -5z" />
    <glyph glyph-name="ograve" unicode="&#xf2;" horiz-adv-x="539" 
d="M31 227q0 54 17 98.5t49 76.5t77 49.5t102 17.5q53 0 96 -17t73 -48t46.5 -75.5t16.5 -100.5q0 -55 -17 -100.5t-49 -77.5t-77.5 -49.5t-101.5 -17.5q-53 0 -96 17t-73 48.5t-46.5 77t-16.5 101.5zM268 432q-47 0 -76 -51t-29 -151q0 -102 29.5 -155.5t77.5 -53.5
q49 0 78 52t29 154q0 100 -29 152.5t-80 52.5zM365 528h-45l-222 150h143z" />
    <glyph glyph-name="oacute" unicode="&#xf3;" horiz-adv-x="539" 
d="M31 227q0 54 17 98.5t49 76.5t77 49.5t102 17.5q53 0 96 -17t73 -48t46.5 -75.5t16.5 -100.5q0 -55 -17 -100.5t-49 -77.5t-77.5 -49.5t-101.5 -17.5q-53 0 -96 17t-73 48.5t-46.5 77t-16.5 101.5zM268 432q-47 0 -76 -51t-29 -151q0 -102 29.5 -155.5t77.5 -53.5
q49 0 78 52t29 154q0 100 -29 152.5t-80 52.5zM442 678l-222 -150h-45l124 150h143z" />
    <glyph glyph-name="ocircumflex" unicode="&#xf4;" horiz-adv-x="539" 
d="M31 227q0 54 17 98.5t49 76.5t77 49.5t102 17.5q53 0 96 -17t73 -48t46.5 -75.5t16.5 -100.5q0 -55 -17 -100.5t-49 -77.5t-77.5 -49.5t-101.5 -17.5q-53 0 -96 17t-73 48.5t-46.5 77t-16.5 101.5zM268 432q-47 0 -76 -51t-29 -151q0 -102 29.5 -155.5t77.5 -53.5
q49 0 78 52t29 154q0 100 -29 152.5t-80 52.5zM438 528h-45l-123 54l-123 -54h-45l168 165z" />
    <glyph glyph-name="otilde" unicode="&#xf5;" horiz-adv-x="539" 
d="M31 227q0 54 17 98.5t49 76.5t77 49.5t102 17.5q53 0 96 -17t73 -48t46.5 -75.5t16.5 -100.5q0 -55 -17 -100.5t-49 -77.5t-77.5 -49.5t-101.5 -17.5q-53 0 -96 17t-73 48.5t-46.5 77t-16.5 101.5zM268 432q-47 0 -76 -51t-29 -151q0 -102 29.5 -155.5t77.5 -53.5
q49 0 78 52t29 154q0 100 -29 152.5t-80 52.5zM336 619q8 -3 15 -5t14 -2q10 0 27.5 10t40.5 31q-10 -51 -36 -77.5t-58 -26.5q-13 0 -23.5 3.5t-20.5 6.5l-92 30q-11 4 -18 5t-9 1q-12 0 -28.5 -11.5t-40.5 -34.5q22 105 105 105q21 0 36 -5z" />
    <glyph glyph-name="odieresis" unicode="&#xf6;" horiz-adv-x="539" 
d="M31 227q0 54 17 98.5t49 76.5t77 49.5t102 17.5q53 0 96 -17t73 -48t46.5 -75.5t16.5 -100.5q0 -55 -17 -100.5t-49 -77.5t-77.5 -49.5t-101.5 -17.5q-53 0 -96 17t-73 48.5t-46.5 77t-16.5 101.5zM268 432q-47 0 -76 -51t-29 -151q0 -102 29.5 -155.5t77.5 -53.5
q49 0 78 52t29 154q0 100 -29 152.5t-80 52.5zM117 599q0 27 15.5 42.5t42.5 15.5q54 0 54 -58q0 -25 -15 -39t-43 -14q-54 0 -54 53zM313 599q0 27 15.5 42.5t42.5 15.5q54 0 54 -58q0 -25 -15 -39t-43 -14q-54 0 -54 53z" />
    <glyph glyph-name="divide" unicode="&#xf7;" horiz-adv-x="833" 
d="M417 551q28 0 47.5 -20t19.5 -48q0 -27 -19 -46.5t-48 -19.5t-48 19t-19 47t20 48t47 20zM709 339v-81h-585v81h585zM417 179q28 0 47.5 -19.5t19.5 -47.5q0 -27 -19 -46.5t-48 -19.5t-48 19t-19 47t20 47.5t47 19.5z" />
    <glyph glyph-name="oslash" unicode="&#xf8;" horiz-adv-x="539" 
d="M463 503l-47 -74q92 -68 92 -200q0 -56 -17 -101.5t-49.5 -77.5t-78.5 -49.5t-105 -17.5t-108 25l-53 -83l-34 25l50 81q-82 75 -82 191q0 57 17 102.5t49 78t78.5 49.5t104.5 17q56 0 97 -19l47 76zM341 392q-28 40 -70 40q-51 0 -79.5 -52t-28.5 -153q0 -28 2.5 -53
t8.5 -49zM191 75q31 -54 79 -54t77.5 52t29.5 154q0 33 -4 63t-12 57z" />
    <glyph glyph-name="ugrave" unicode="&#xf9;" horiz-adv-x="536" 
d="M189 170q0 -58 23.5 -84t80.5 -26q11 0 25.5 2t32.5 4v230q0 37 -8.5 70t-28.5 68l157 39v-298q0 -29 4.5 -63t32.5 -81l-157 -39v64q-52 -31 -93 -47.5t-73 -16.5q-116 0 -116 155v149q0 37 -9 70t-29 68l158 39v-303zM363 528h-45l-222 150h143z" />
    <glyph glyph-name="uacute" unicode="&#xfa;" horiz-adv-x="536" 
d="M189 170q0 -58 23.5 -84t80.5 -26q11 0 25.5 2t32.5 4v230q0 37 -8.5 70t-28.5 68l157 39v-298q0 -29 4.5 -63t32.5 -81l-157 -39v64q-52 -31 -93 -47.5t-73 -16.5q-116 0 -116 155v149q0 37 -9 70t-29 68l158 39v-303zM440 678l-222 -150h-45l124 150h143z" />
    <glyph glyph-name="ucircumflex" unicode="&#xfb;" horiz-adv-x="536" 
d="M189 170q0 -58 23.5 -84t80.5 -26q11 0 25.5 2t32.5 4v230q0 37 -8.5 70t-28.5 68l157 39v-298q0 -29 4.5 -63t32.5 -81l-157 -39v64q-52 -31 -93 -47.5t-73 -16.5q-116 0 -116 155v149q0 37 -9 70t-29 68l158 39v-303zM436 528h-45l-123 54l-123 -54h-45l168 165z" />
    <glyph glyph-name="udieresis" unicode="&#xfc;" horiz-adv-x="536" 
d="M189 170q0 -58 23.5 -84t80.5 -26q11 0 25.5 2t32.5 4v230q0 37 -8.5 70t-28.5 68l157 39v-298q0 -29 4.5 -63t32.5 -81l-157 -39v64q-52 -31 -93 -47.5t-73 -16.5q-116 0 -116 155v149q0 37 -9 70t-29 68l158 39v-303zM115 599q0 27 15.5 42.5t42.5 15.5q54 0 54 -58
q0 -25 -15 -39t-43 -14q-54 0 -54 53zM311 599q0 27 15.5 42.5t42.5 15.5q54 0 54 -58q0 -25 -15 -39t-43 -14q-54 0 -54 53z" />
    <glyph glyph-name="yacute" unicode="&#xfd;" horiz-adv-x="456" 
d="M198 463q-14 -20 -22 -34.5t-8 -27.5q0 -9 7 -30l95 -256l77 246q8 27 8 38t-7 26t-20 38h151q-29 -29 -46 -60t-31 -66l-138 -356q-18 -48 -35 -83t-36.5 -58t-44.5 -34t-61 -11q-15 0 -33.5 2t-39.5 6v118l63 -49q25 -19 40 -19q25 0 44.5 32.5t46.5 98.5l-157 372
q-5 13 -18.5 40t-51.5 67h217zM400 678l-222 -150h-45l124 150h143z" />
    <glyph glyph-name="thorn" unicode="&#xfe;" horiz-adv-x="539" 
d="M184 708v-301q45 30 80.5 46.5t66.5 16.5q36 0 67.5 -16t55.5 -45t37.5 -69.5t13.5 -90.5q0 -56 -17 -103.5t-46.5 -81.5t-69 -53t-83.5 -19q-55 0 -105 32v-86q0 -38 8 -72t30 -72h-194q22 37 30 71.5t8 72.5v593q0 38 -11.5 70.5t-35.5 67.5zM184 58q27 -13 57 -13
q62 0 101.5 49t39.5 134q0 83 -39 128.5t-107 45.5q-19 0 -52 -6v-338z" />
    <glyph glyph-name="ydieresis" unicode="&#xff;" horiz-adv-x="456" 
d="M198 463q-14 -20 -22 -34.5t-8 -27.5q0 -9 7 -30l95 -256l77 246q8 27 8 38t-7 26t-20 38h151q-29 -29 -46 -60t-31 -66l-138 -356q-18 -48 -35 -83t-36.5 -58t-44.5 -34t-61 -11q-15 0 -33.5 2t-39.5 6v118l63 -49q25 -19 40 -19q25 0 44.5 32.5t46.5 98.5l-157 372
q-5 13 -18.5 40t-51.5 67h217zM75 599q0 27 15.5 42.5t42.5 15.5q54 0 54 -58q0 -25 -15 -39t-43 -14q-54 0 -54 53zM271 599q0 27 15.5 42.5t42.5 15.5q54 0 54 -58q0 -25 -15 -39t-43 -14q-54 0 -54 53z" />
    <glyph glyph-name="dotlessi" unicode="&#x131;" horiz-adv-x="272" 
d="M200 144q0 -29 4.5 -63t32.5 -81h-194q27 47 32 81t5 63v152q0 37 -8.5 70t-28.5 68l157 39v-329z" />
    <glyph glyph-name="Lslash" unicode="&#x141;" horiz-adv-x="454" 
d="M240 655q-26 -45 -31 -77.5t-5 -60.5v-6v-79l71 64l35 -40l-106 -94v-316h74q35 0 63 21l116 87l-21 -154h-394q27 47 32 81t5 63v107l-56 -49l-34 38l90 80v191q0 29 -5 63t-32 81h198z" />
    <glyph glyph-name="lslash" unicode="&#x142;" horiz-adv-x="275" 
d="M194 473l45 41l33 -36l-78 -70v-264q0 -29 4.5 -63t32.5 -81h-194q27 47 32 81t5 63v159l-43 -40l-33 37l76 71v160q0 37 -9 68.5t-36 69.5l165 39v-235z" />
    <glyph glyph-name="OE" unicode="&#x152;" horiz-adv-x="856" 
d="M806 655v-143l-100 79q-17 13 -32.5 15.5t-36.5 2.5h-9h-82v-250h73q29 0 43 6.5t27 16.5l71 52v-196l-83 59q-17 11 -32 13t-32 2h-67v-266h99q35 0 63 21l115 87l-21 -154h-383q-52 -11 -88 -11q-71 0 -126.5 22.5t-94 64.5t-59 102.5t-20.5 137.5t22.5 141t63 110
t97 71.5t125.5 25.5q40 0 82 -9h385zM419 592q-38 19 -75 19q-90 0 -131.5 -70.5t-41.5 -223.5q0 -131 46 -203t124 -72q34 0 78 22v528z" />
    <glyph glyph-name="oe" unicode="&#x153;" horiz-adv-x="815" 
d="M266 432q-47 0 -76 -51t-29 -151q0 -102 29.5 -155.5t77.5 -53.5q49 0 78 52t29 154q0 100 -29 152.5t-80 52.5zM441 405q64 64 161 64q85 0 136 -55.5t51 -157.5v-5h-295v-14q0 -91 44.5 -137t131.5 -46q20 0 50.5 3.5t71.5 9.5q-86 -80 -194 -80q-96 0 -162 60
q-64 -64 -174 -64q-54 0 -97 17t-73 48.5t-46.5 77t-16.5 101.5q0 54 17 99t49 76.5t77.5 49t102.5 17.5q49 0 88.5 -15t77.5 -49zM660 293q0 67 -20 101.5t-55 34.5q-87 0 -90 -160z" />
    <glyph glyph-name="Scaron" unicode="&#x160;" horiz-adv-x="479" 
d="M420 511l-104 83q-14 11 -27 17t-36 6q-50 0 -79.5 -26.5t-29.5 -68.5q0 -36 24 -58t68 -49l87 -54q60 -37 89.5 -76t29.5 -102q0 -92 -59 -141t-176 -49q-44 0 -87 7.5t-88 21.5v151l114 -107q18 -17 34 -21t40 -4q51 0 81 27.5t30 71.5q0 35 -21 59t-61 50l-96 63
q-56 36 -82.5 75t-26.5 99q0 87 58.5 133.5t170.5 46.5q33 0 69.5 -4t77.5 -13v-138zM117 874l123 -54l123 54h45l-168 -166l-168 166h45z" />
    <glyph glyph-name="scaron" unicode="&#x161;" horiz-adv-x="396" 
d="M346 336q-54 40 -87.5 64t-53.5 24q-24 0 -40.5 -15.5t-16.5 -38.5q0 -22 14.5 -37.5t41.5 -30.5l68 -38q47 -26 70 -55.5t23 -74.5q0 -66 -48.5 -107.5t-133.5 -41.5q-35 0 -72.5 6t-75.5 20v116q56 -43 92 -69.5t65 -26.5q26 0 43.5 17.5t17.5 42.5q0 27 -17.5 41
t-44.5 31l-69 42q-42 26 -62.5 55t-20.5 70q0 65 45.5 102t130.5 37q67 0 131 -19v-114zM75 683l123 -54l123 54h45l-168 -166l-168 166h45z" />
    <glyph glyph-name="Ydieresis" unicode="&#x178;" horiz-adv-x="521" 
d="M185 655q-22 -32 -22 -47q0 -13 16 -41l122 -212l110 221l7.5 15t3.5 18q0 15 -22 46h162q-19 -17 -45.5 -47t-54.5 -76l-134 -224v-164v-6q0 -28 5 -60.5t31 -77.5h-198q27 47 32 81t5 63v145l-155 263q-34 57 -87 103h224zM108 790q0 27 15.5 42.5t42.5 15.5
q54 0 54 -58q0 -25 -15 -39t-43 -14q-54 0 -54 53zM304 790q0 27 15.5 42.5t42.5 15.5q54 0 54 -58q0 -25 -15 -39t-43 -14q-54 0 -54 53z" />
    <glyph glyph-name="Zcaron" unicode="&#x17d;" horiz-adv-x="535" 
d="M517 655l-337 -606h177q17 0 33 7.5t35 21.5t41.5 33.5t51.5 42.5l-19 -154h-490l337 605h-145q-35 0 -68 -26t-83 -70v146h467zM145 874l123 -54l123 54h45l-168 -166l-168 166h45z" />
    <glyph glyph-name="zcaron" unicode="&#x17e;" horiz-adv-x="461" 
d="M437 463l-249 -418h104q11 0 20 2.5t18 10.5l98 78v-136h-406l248 418h-72q-19 0 -41 -15l-93 -70v130h373zM108 683l123 -54l123 54h45l-168 -166l-168 166h45z" />
    <glyph glyph-name="florin" unicode="&#x192;" horiz-adv-x="512" 
d="M486 593q-43 29 -67.5 46.5t-38.5 17.5q-42 0 -58 -46.5t-26 -144.5h123l-4 -47h-124l-47 -368q-8 -65 -23.5 -113.5t-42 -81t-65 -48.5t-92.5 -16q-15 0 -29.5 1t-28.5 5l14 107q38 -28 59 -44.5t34 -16.5q34 0 48 38t22 111l48 426h-89l5 47h89q6 118 65.5 179.5
t165.5 61.5q17 0 36.5 -1.5t41.5 -5.5z" />
    <glyph glyph-name="circumflex" unicode="&#x2c6;" 
d="M418 528h-45l-123 54l-123 -54h-45l168 165z" />
    <glyph glyph-name="caron" unicode="&#x2c7;" 
d="M127 683l123 -54l123 54h45l-168 -166l-168 166h45z" />
    <glyph glyph-name="breve" unicode="&#x2d8;" 
d="M93 664q42 -23 81.5 -34t75.5 -11q40 0 77.5 11t79.5 34q-14 -58 -57 -92t-102 -34q-28 0 -53.5 9t-46.5 25.5t-35.5 40t-19.5 51.5z" />
    <glyph glyph-name="dotaccent" unicode="&#x2d9;" 
d="M248 662q64 0 64 -63q0 -27 -16.5 -42.5t-47.5 -15.5q-59 0 -59 56q0 30 16.5 47.5t42.5 17.5z" />
    <glyph glyph-name="ring" unicode="&#x2da;" 
d="M249 743q25 0 46.5 -9.5t37.5 -25.5t25.5 -37.5t9.5 -45.5q0 -25 -9 -46.5t-25 -37.5t-38 -25.5t-47 -9.5t-46.5 9t-37.5 25t-25 38t-9 47t9 46.5t25 37.5t37.5 25t46.5 9zM250 686q-26 0 -44 -17.5t-18 -43.5t18 -44t44 -18t43.5 18t17.5 44t-17.5 43.5t-43.5 17.5z" />
    <glyph glyph-name="ogonek" unicode="&#x2db;" 
d="M302 0q-32 -41 -32 -90q0 -57 55 -100q-70 2 -110 31t-40 70q0 34 27 57t81 32h19z" />
    <glyph glyph-name="tilde" unicode="&#x2dc;" 
d="M316 619q8 -3 15 -5t14 -2q10 0 27.5 10t40.5 31q-10 -51 -36 -77.5t-58 -26.5q-13 0 -23.5 3.5t-20.5 6.5l-92 30q-11 4 -18 5t-9 1q-12 0 -28.5 -11.5t-40.5 -34.5q22 105 105 105q21 0 36 -5z" />
    <glyph glyph-name="hungarumlaut" unicode="&#x2dd;" 
d="M302 671l-131 -143h-33l71 143h93zM450 671l-132 -143h-31l68 143h95z" />
    <glyph glyph-name="endash" unicode="&#x2013;" 
d="M500 263v-76h-500v76h500z" />
    <glyph glyph-name="emdash" unicode="&#x2014;" horiz-adv-x="1000" 
d="M1000 263v-76h-1000v76h1000z" />
    <glyph glyph-name="quoteleft" unicode="&#x2018;" horiz-adv-x="215" 
d="M152 704q-32 -49 -37 -128h3q27 0 42.5 -14.5t15.5 -38.5q0 -60 -66 -60q-34 0 -52 22.5t-18 64.5q0 29 8.5 54.5t23.5 46t35.5 34.5t44.5 19z" />
    <glyph glyph-name="quoteright" unicode="&#x2019;" horiz-adv-x="215" 
d="M64 463q15 24 25 57t12 71h-3q-27 0 -42.5 14.5t-15.5 38.5q0 60 66 60q34 0 52 -22.5t18 -64.5q0 -28 -8.5 -54t-23.5 -46.5t-35.5 -34.5t-44.5 -19z" />
    <glyph glyph-name="quotesinglbase" unicode="&#x201a;" horiz-adv-x="215" 
d="M64 -131q32 49 37 127h-3q-27 0 -42.5 14.5t-15.5 38.5q0 60 66 60q70 0 70 -86q0 -28 -8.5 -54t-23.5 -46.5t-35.5 -34.5t-44.5 -19z" />
    <glyph glyph-name="quotedblleft" unicode="&#x201c;" horiz-adv-x="398" 
d="M152 704q-32 -49 -37 -128h3q27 0 42.5 -14.5t15.5 -38.5q0 -60 -66 -60q-34 0 -52 22.5t-18 64.5q0 29 8.5 54.5t23.5 46t35.5 34.5t44.5 19zM340 704q-16 -24 -25.5 -57t-11.5 -71h3q27 0 42.5 -14.5t15.5 -38.5q0 -60 -66 -60q-34 0 -52 22.5t-18 64.5q0 29 8.5 54.5
t23.5 46t35.5 34.5t44.5 19z" />
    <glyph glyph-name="quotedblright" unicode="&#x201d;" horiz-adv-x="398" 
d="M64 463q15 24 25 57t12 71h-3q-27 0 -42.5 14.5t-15.5 38.5q0 60 66 60q34 0 52 -22.5t18 -64.5q0 -28 -8.5 -54t-23.5 -46.5t-35.5 -34.5t-44.5 -19zM250 463q15 24 25 57t12 71h-3q-27 0 -42.5 14.5t-15.5 38.5q0 60 66 60q34 0 52 -22.5t18 -64.5q0 -28 -8.5 -54
t-23.5 -46.5t-35.5 -34.5t-44.5 -19z" />
    <glyph glyph-name="quotedblbase" unicode="&#x201e;" horiz-adv-x="398" 
d="M64 -131q32 49 37 127h-3q-27 0 -42.5 14.5t-15.5 38.5q0 60 66 60q70 0 70 -86q0 -28 -8.5 -54t-23.5 -46.5t-35.5 -34.5t-44.5 -19zM250 -131q32 49 37 127h-3q-27 0 -42.5 14.5t-15.5 38.5q0 60 66 60q70 0 70 -86q0 -28 -8.5 -54t-23.5 -46.5t-35.5 -34.5t-44.5 -19z
" />
    <glyph glyph-name="dagger" unicode="&#x2020;" horiz-adv-x="389" 
d="M256 655l-50 -212l178 42v-103l-178 42q2 -29 16.5 -58t40.5 -55q-3 -158 -18 -287t-48 -233h-3q-33 123 -48.5 249t-15.5 258v13q49 44 58 113l-179 -42v103l178 -42l-53 212h122z" />
    <glyph glyph-name="daggerdbl" unicode="&#x2021;" horiz-adv-x="389" 
d="M256 655l-50 -212l178 42v-103l-178 42q5 -27 19 -76.5t38 -121.5q-14 -37 -28.5 -85.5t-29.5 -111.5l179 42v-103l-178 42l53 -212h-122l50 212l-178 -42v103l178 -42q-5 29 -19 78.5t-38 118.5q17 49 32 98t26 100l-179 -42v103l178 -42l-53 212h122z" />
    <glyph glyph-name="bullet" unicode="&#x2022;" horiz-adv-x="590" 
d="M150 372q0 30 11.5 56.5t31 46t46 30.5t56.5 11t56 -11t45.5 -30.5t31 -46t11.5 -56.5t-11.5 -56t-31 -46t-46 -31.5t-56.5 -11.5t-56 11.5t-45.5 31t-31 46t-11.5 56.5z" />
    <glyph glyph-name="ellipsis" unicode="&#x2026;" horiz-adv-x="1000" 
d="M174 112q69 0 69 -63q0 -30 -17 -43.5t-52 -13.5q-63 0 -63 57q0 30 16.5 46.5t46.5 16.5zM507 112q69 0 69 -63q0 -30 -17 -43.5t-52 -13.5q-63 0 -63 57q0 30 16.5 46.5t46.5 16.5zM841 112q69 0 69 -63q0 -30 -17 -43.5t-52 -13.5q-63 0 -63 57q0 30 16.5 46.5
t46.5 16.5z" />
    <glyph glyph-name="perthousand" unicode="&#x2030;" horiz-adv-x="824" 
d="M152 662q62 0 100.5 -42t38.5 -111q0 -34 -10 -62t-28.5 -48.5t-44.5 -32t-57 -11.5q-30 0 -54.5 11.5t-42.5 31.5t-28 48t-10 61q0 34 10.5 62.5t28.5 49t43 32t54 11.5zM152 627q-24 0 -39.5 -30.5t-15.5 -89.5q0 -57 15 -86.5t40 -29.5q26 0 41.5 31t15.5 91
q0 54 -16 84t-41 30zM527 544l-497 -465l-25 26l495 463zM368 290q62 0 100.5 -41.5t38.5 -110.5q0 -33 -10 -61t-28.5 -48.5t-43.5 -31.5t-55 -11q-31 0 -56.5 11t-43.5 31t-28 47.5t-10 59.5q0 33 10.5 61.5t28.5 49.5t43 32.5t54 11.5zM681 290q62 0 100.5 -41.5
t38.5 -110.5q0 -33 -10.5 -61t-28.5 -48.5t-43.5 -31.5t-55.5 -11q-31 0 -56.5 11t-43.5 31t-27.5 47.5t-9.5 59.5q0 33 10.5 61.5t28.5 49.5t43 32.5t54 11.5zM368 252q-23 0 -38.5 -29.5t-15.5 -86.5q0 -55 14.5 -84t39.5 -29q26 0 41 30.5t15 88.5q0 53 -16 81.5
t-40 28.5zM680 252q-23 0 -38.5 -29.5t-15.5 -86.5q0 -55 15 -84t40 -29q26 0 41 30.5t15 88.5q0 53 -16.5 81.5t-40.5 28.5z" />
    <glyph glyph-name="guilsinglleft" unicode="&#x2039;" horiz-adv-x="231" 
d="M201 421l-88 -187l88 -174h-58l-105 174l106 187h57z" />
    <glyph glyph-name="guilsinglright" unicode="&#x203a;" horiz-adv-x="231" 
d="M91 421l106 -173l-106 -188h-58l88 188l-87 173h57z" />
    <glyph glyph-name="fraction" unicode="&#x2044;" horiz-adv-x="167" 
d="M344 544l-497 -465l-25 26l495 463z" />
    <glyph glyph-name="trademark" unicode="&#x2122;" horiz-adv-x="833" 
d="M338 713v-46h-82v-219h-63v219h-83v46h228zM478 713l69 -176l65 176h83v-265h-56v209l-78 -209h-29l-81 209v-209h-56v265h83z" />
    <glyph glyph-name="minus" unicode="&#x2212;" horiz-adv-x="833" 
d="M709 340v-83h-585v83h585z" />
    <glyph glyph-name="fi" unicode="&#xfb01;" horiz-adv-x="553" 
d="M204 463h185q33 0 57.5 2.5t41.5 6.5v-347q0 -70 34 -125h-194q31 52 36 89.5t5 68.5v205q0 35 -14 45t-49 10h-102v-285v-18q0 -19 5.5 -46.5t30.5 -68.5h-195q28 48 33.5 84.5t5.5 69.5v264h-64v45h64v60q0 185 250 185q85 0 123.5 -11t38.5 -43q0 -28 -17.5 -47.5
t-46.5 -19.5q-19 0 -31.5 4.5t-20 10t-11 10t-4.5 4.5q-5 0 -12.5 14.5t-23.5 26.5q-13 10 -26 10q-52 0 -75.5 -33.5t-23.5 -101.5v-69z" />
    <glyph glyph-name="fl" unicode="&#xfb02;" horiz-adv-x="553" 
d="M490 144v-6q0 -28 5 -60.5t31 -77.5h-193q27 47 31.5 81t4.5 63v486l-40 23q-7 4 -13.5 7t-17.5 3q-50 0 -72 -31.5t-22 -99.5v-69h102l-3 -45h-99v-285v-18q0 -19 5.5 -46.5t30.5 -68.5h-195q28 48 33.5 84.5t5.5 69.5v264h-64v45h64v60q0 185 250 185q60 0 113 -11
l43 11v-564z" />
  </font>
</defs>
</svg>
